<?xml version="1.0" standalone="no"?>
<!DOCTYPE svg PUBLIC "-//W3C//DTD SVG 20010904//EN"
 "http://www.w3.org/TR/2001/REC-SVG-20010904/DTD/svg10.dtd">
<svg version="1.0" xmlns="http://www.w3.org/2000/svg"
 width="3840.000000pt" height="2160.000000pt" viewBox="0 0 3840.000000 2160.000000"
 preserveAspectRatio="xMidYMid meet">
<metadata>
Created by potrace 1.15, written by Peter Selinger 2001-2017
</metadata>
<g transform="translate(0.000000,2160.000000) scale(0.100000,-0.100000)"
fill="#000000" stroke="none">
<path d="M4 17734 c3 -2128 6 -3888 6 -3911 -1 -24 4 -43 10 -43 6 0 10 26 10
62 0 34 3 58 6 55 4 -4 6 -40 5 -82 -1 -47 2 -75 8 -75 6 0 11 6 11 13 0 8 3
7 10 -3 12 -20 20 -9 13 19 -4 17 -8 19 -14 9 -5 -8 -9 22 -9 73 0 84 1 86 23
84 34 -4 34 -4 9 -23 -18 -14 -23 -26 -20 -55 2 -29 6 -35 18 -27 12 7 12 12
2 22 -21 21 -14 28 28 28 42 0 56 22 23 34 -12 5 -13 10 -5 18 8 8 15 6 27 -6
9 -9 22 -16 28 -16 8 0 7 4 -2 9 -11 7 -8 15 14 37 27 27 29 27 36 9 4 -11 5
1 2 28 -5 39 -3 47 11 47 9 0 16 8 16 20 0 11 -4 20 -10 20 -5 0 -10 7 -10 15
0 8 4 15 9 15 5 0 14 -7 21 -15 7 -8 18 -15 25 -15 8 0 15 -6 18 -12 2 -8 8
-9 13 -4 5 5 4 11 -3 13 -17 6 -17 52 0 57 6 3 33 10 59 17 35 10 48 18 48 31
0 10 9 27 20 38 20 20 20 20 -1 20 -18 0 -19 2 -9 15 7 8 19 15 27 15 10 0 12
6 8 20 -4 12 -1 27 5 35 10 12 10 18 0 30 -6 8 -9 19 -5 25 9 15 35 12 35 -4
0 -20 19 -31 32 -18 8 8 8 15 -1 26 -14 16 -6 40 10 30 5 -3 7 -9 5 -13 -3 -4
8 -5 24 -3 29 4 33 22 4 22 -22 0 -17 28 7 35 13 5 25 2 31 -6 7 -11 8 -9 4 4
-3 10 -6 21 -6 23 0 2 -25 4 -55 4 -41 0 -55 4 -55 14 0 23 18 28 29 9 10 -17
10 -17 11 0 0 9 -4 17 -10 17 -5 0 -10 9 -10 20 0 26 -8 25 -37 -2 -17 -16
-26 -19 -34 -11 -15 15 -3 33 22 33 11 0 27 7 35 15 9 8 22 15 31 15 9 0 13
-6 9 -15 -4 -12 3 -15 34 -15 31 0 40 -4 40 -17 0 -15 2 -14 14 3 10 14 11 22
4 32 -8 10 -13 10 -18 1 -5 -8 -15 -6 -34 6 -33 22 -33 35 -2 35 13 0 26 3 29
8 2 4 2 1 1 -5 -5 -19 10 -16 29 5 10 10 17 35 17 54 0 20 6 39 12 42 9 3 7 9
-6 20 -19 15 -19 16 7 16 20 0 27 -5 27 -20 0 -16 7 -20 30 -20 17 0 30 -4 30
-10 0 -5 9 -10 20 -10 11 0 20 5 20 10 0 6 25 10 55 10 53 0 55 -1 56 -27 l0
-28 12 23 c8 19 8 25 -4 33 -12 8 -11 12 4 23 18 14 18 15 -2 35 -12 12 -24
21 -27 21 -10 0 -34 28 -34 39 0 23 25 11 70 -32 11 -12 26 -17 37 -13 15 5
18 14 15 46 -4 42 12 55 23 19 7 -20 8 -19 26 10 10 17 23 31 29 31 5 0 10 7
10 15 0 21 -18 19 -25 -4 -8 -26 -31 -33 -45 -15 -16 18 -30 18 -30 -1 0 -8
-5 -15 -10 -15 -6 0 -8 -15 -4 -40 4 -27 3 -40 -5 -40 -6 0 -11 17 -11 40 0
41 -7 49 -28 28 -6 -6 -15 -8 -19 -3 -5 4 -2 10 5 12 10 4 9 9 -4 24 -22 25
-32 24 -37 -3 -2 -13 -5 -4 -6 20 -1 39 1 42 18 32 11 -5 31 -10 45 -10 14 0
26 -4 26 -10 0 -19 22 -10 27 11 5 16 12 20 34 17 15 -3 26 -2 24 1 -2 4 15
19 38 35 40 29 40 29 34 6 -4 -17 -3 -20 6 -11 6 6 19 11 29 11 21 0 24 15 5
23 -14 5 -43 104 -34 114 4 3 17 3 30 -1 18 -4 24 -12 22 -28 -1 -13 0 -15 2
-5 2 9 11 17 18 17 8 0 18 6 22 14 9 14 56 27 113 29 36 2 40 5 40 33 0 15 -2
15 -26 -1 -19 -12 -29 -14 -37 -6 -17 17 -27 13 -27 -10 0 -11 -4 -17 -10 -14
-15 9 -12 44 4 60 12 12 16 12 26 0 7 -8 16 -15 20 -15 12 0 40 59 40 83 0 20
19 20 63 2 12 -5 17 -3 17 8 0 9 8 20 17 26 12 6 17 20 15 40 -2 22 2 31 13
31 9 0 15 9 15 23 0 12 7 30 14 40 14 18 14 17 21 -2 3 -12 13 -21 21 -21 8 0
14 -9 14 -20 0 -10 9 -24 21 -30 17 -9 23 -8 33 6 7 9 11 27 8 40 -4 20 0 24
21 24 14 0 28 -6 30 -12 3 -7 3 5 0 27 -4 22 -11 43 -17 47 -8 5 -7 11 2 20
19 19 15 58 -7 58 -10 0 -22 -7 -25 -16 -6 -16 -8 -16 -24 0 -10 9 -24 16 -31
16 -7 0 -10 4 -7 8 3 5 31 7 62 4 45 -4 56 -2 52 9 -3 8 -22 15 -46 17 -23 2
-42 8 -42 14 0 6 19 9 47 6 36 -3 52 1 65 14 10 10 24 15 33 12 14 -6 20 7 15
31 -6 33 -1 68 16 92 10 15 18 34 19 42 0 21 23 25 27 4 4 -22 -22 -73 -38
-73 -17 0 -25 -28 -10 -33 8 -3 19 0 25 6 19 19 44 -16 44 -62 0 -45 10 -52
27 -21 9 16 8 22 -6 27 -12 4 -14 14 -10 34 3 17 1 29 -5 29 -15 0 -7 53 9 58
7 2 18 -11 26 -29 l14 -32 11 52 c15 70 14 97 -5 126 -15 23 -15 25 1 25 13 0
16 6 13 25 -3 13 -1 22 4 19 5 -3 6 -24 3 -45 l-7 -39 41 0 c32 0 41 4 41 18
1 16 1 16 14 0 7 -10 17 -18 22 -18 6 0 10 -10 9 -22 0 -13 5 -23 10 -23 6 0
10 10 10 23 -1 12 3 22 7 22 4 0 8 6 8 13 0 7 9 19 20 27 11 8 20 20 20 27 0
7 7 13 15 13 8 0 16 6 16 13 1 6 5 -6 9 -28 6 -39 7 -39 17 -15 6 14 7 26 2
28 -5 2 -9 11 -9 19 0 11 7 14 25 9 22 -6 25 -3 25 20 0 18 12 37 40 62 23 20
39 41 36 49 -3 7 -1 13 5 13 5 0 19 9 31 20 29 27 41 25 36 -4 -5 -23 -2 -25
34 -24 42 0 42 1 -6 56 -15 17 -17 25 -8 34 18 18 14 45 -10 62 -20 14 -20 16
-3 22 11 5 20 3 23 -4 2 -7 16 -12 30 -12 23 -1 25 -2 10 -11 -22 -12 -23 -29
-3 -29 8 0 15 -4 15 -10 0 -5 7 -10 15 -10 8 0 15 -6 15 -12 1 -7 7 -1 15 14
18 32 54 46 66 27 7 -11 10 -9 15 9 4 14 14 22 28 23 21 0 21 0 -1 9 -32 13
-30 48 3 61 21 7 31 6 44 -6 9 -8 20 -12 23 -8 13 12 7 23 -12 23 -24 0 -45
25 -37 46 8 20 26 9 26 -17 0 -26 26 -24 34 4 l6 22 14 -24 c11 -21 14 -21 20
-6 3 10 2 23 -4 30 -21 25 5 49 77 70 12 3 24 1 28 -5 9 -15 25 -12 25 5 0 8
-4 15 -10 15 -5 0 -10 9 -10 20 0 11 -7 23 -15 26 -8 4 -15 14 -15 24 0 11 -5
22 -10 25 -35 22 71 36 110 15 25 -14 110 23 117 50 7 28 23 25 23 -5 0 -22 4
-25 40 -25 36 0 40 3 40 25 0 21 -5 25 -30 25 -34 0 -37 6 -13 32 15 17 17 17
35 1 19 -17 19 -16 12 12 -3 17 -11 34 -15 40 -12 12 -11 35 1 35 6 0 10 -10
10 -21 0 -17 3 -19 13 -10 16 13 27 5 27 -21 0 -22 16 -24 24 -3 3 8 12 15 20
15 10 0 13 6 10 15 -4 10 0 15 11 15 13 0 16 -6 12 -21 -5 -20 -3 -21 33 -15
31 5 38 3 34 -8 -7 -18 15 -31 29 -17 13 13 -20 54 -39 47 -7 -3 -14 4 -17 14
-3 13 0 17 9 13 22 -8 44 5 38 22 -4 9 -18 15 -35 15 -18 0 -29 5 -29 14 0 10
12 12 50 8 33 -3 50 -1 50 7 0 6 17 11 38 11 26 0 45 7 57 20 18 19 17 20 -3
20 -12 0 -22 5 -22 11 0 7 -11 8 -30 4 -23 -5 -30 -3 -30 9 0 26 16 26 74 1
66 -29 76 -30 76 -10 0 8 5 15 10 15 6 0 10 -4 10 -10 0 -5 7 -10 15 -10 19 0
19 9 -2 32 -14 16 -15 18 0 18 9 0 19 -4 22 -10 9 -15 25 -12 25 5 0 9 6 12
15 9 29 -11 46 3 35 30 -7 21 -6 26 10 31 11 4 20 12 20 20 0 7 6 15 12 18 11
3 11 9 0 26 -15 25 -15 31 -2 31 6 0 10 -6 10 -14 0 -7 6 -19 14 -26 8 -6 13
-17 10 -24 -3 -8 4 -16 16 -19 20 -5 21 -3 16 51 -3 31 -3 49 0 39 3 -9 10
-14 16 -11 10 7 48 -29 48 -46 0 -5 9 -10 20 -10 17 0 20 7 20 40 0 22 5 40
11 40 7 0 10 -17 7 -45 -2 -27 1 -44 7 -42 5 2 11 23 13 47 2 24 10 53 18 64
15 20 15 20 8 -8 -5 -19 -2 -31 7 -37 12 -8 12 -10 0 -18 -12 -8 -12 -12 -2
-25 18 -22 30 -20 24 4 -3 13 0 20 8 20 17 0 40 46 32 66 -8 20 10 17 35 -6
12 -11 27 -20 34 -20 8 1 7 5 -4 14 -10 7 -18 20 -18 29 0 8 -8 18 -17 21 -15
6 -15 8 -3 16 21 14 30 12 24 -4 -4 -11 7 -21 36 -31 3 -1 13 -5 23 -10 11 -4
23 -3 29 3 8 8 6 13 -8 18 -30 12 -35 28 -11 41 30 17 47 16 47 -2 0 -20 49
-32 62 -14 7 11 11 11 15 2 2 -7 14 -13 26 -12 12 0 16 3 9 6 -7 2 -17 13 -22
24 -9 16 -7 19 15 19 18 0 25 -5 25 -19 0 -27 37 -34 61 -10 10 10 23 19 28
19 5 0 13 9 16 21 7 20 7 20 27 2 14 -12 18 -25 14 -45 -4 -23 -2 -28 13 -28
14 0 18 7 17 30 -1 16 -7 32 -13 35 -7 2 -13 11 -13 19 0 8 -8 16 -17 19 -11
2 -3 7 19 11 49 10 49 26 1 26 -42 0 -72 13 -55 24 6 4 9 14 6 24 -4 10 -2 13
3 7 12 -15 60 -35 83 -35 11 0 24 -8 29 -18 14 -26 65 -17 90 14 10 13 26 24
36 24 9 0 13 5 10 10 -3 6 -24 10 -46 10 -32 0 -39 3 -39 20 0 18 7 20 54 20
39 0 55 -4 60 -15 8 -23 46 3 46 32 0 27 -7 29 -31 7 -11 -10 -19 -12 -24 -5
-3 6 1 14 9 17 21 8 20 34 -1 50 -17 12 -17 13 -1 14 9 0 20 -4 23 -10 9 -15
25 -12 25 5 0 8 7 15 15 15 8 0 15 5 15 10 0 6 7 10 15 10 24 0 17 -17 -10
-24 -28 -7 -34 -36 -11 -55 18 -15 86 -6 99 12 5 7 6 3 2 -10 -8 -30 2 -48 20
-33 9 7 13 31 12 65 -1 30 1 57 4 59 7 8 79 -5 79 -14 0 -4 -12 -12 -26 -18
-30 -14 -23 -32 12 -32 17 0 24 -5 24 -20 0 -15 -7 -20 -25 -20 -14 0 -28 -7
-31 -15 -4 -8 -12 -15 -20 -15 -8 0 -14 -4 -14 -10 0 -5 17 -10 38 -10 27 0
41 6 50 20 10 17 16 19 33 9 20 -10 21 -9 15 23 -3 18 -3 27 0 21 3 -7 10 -13
15 -13 14 0 11 27 -3 34 -10 5 -10 7 0 12 6 3 12 19 12 36 0 30 0 30 26 13 29
-19 54 -14 54 10 0 19 23 45 39 45 6 0 11 9 11 20 0 12 -7 20 -16 20 -10 0
-14 6 -11 14 3 7 0 19 -6 25 -8 8 -6 11 10 11 11 0 28 -12 38 -26 14 -21 21
-24 47 -19 23 6 29 4 26 -6 -3 -8 -14 -15 -26 -17 -12 -2 -27 -12 -32 -23 -6
-10 -19 -19 -29 -19 -19 0 -36 -39 -23 -52 4 -4 17 -5 30 -2 16 5 22 14 22 35
0 22 4 27 16 22 19 -7 64 16 64 33 0 7 6 17 13 21 8 4 17 25 20 46 5 33 3 39
-18 47 -33 13 -38 26 -23 60 14 32 27 37 46 18 8 -8 15 -8 27 2 13 11 15 9 15
-10 0 -20 -4 -22 -40 -18 -28 2 -40 0 -40 -9 0 -7 6 -13 13 -14 6 -1 21 -2 32
-3 11 0 19 -7 18 -13 -2 -7 2 -13 8 -13 8 0 9 -11 5 -31 l-6 -32 21 27 c11 14
29 26 40 26 10 0 19 5 19 10 0 6 -13 10 -30 10 -35 0 -41 23 -11 40 26 13 49
3 54 -23 l4 -22 2 21 c0 13 10 24 21 27 30 8 26 41 -4 35 -19 -4 -25 0 -29 19
-2 14 0 42 5 64 10 36 13 39 44 39 24 0 34 -5 34 -15 0 -16 14 -18 45 -5 18 7
16 9 -12 15 -39 9 -45 35 -8 35 28 0 30 3 13 30 -15 23 -5 35 19 25 21 -9 29
-12 43 -14 6 0 10 -8 10 -16 0 -8 8 -15 17 -15 13 0 14 -3 5 -12 -8 -8 -15 -8
-27 2 -15 13 -35 7 -22 -7 13 -12 65 -6 81 9 14 14 13 18 -9 42 -30 32 -32 46
-6 46 10 0 21 9 24 20 8 31 27 24 27 -10 0 -16 -4 -30 -10 -30 -14 0 -13 -47
2 -56 8 -5 6 -11 -7 -20 -10 -7 -15 -20 -12 -29 8 -19 27 -20 27 0 0 9 7 18
16 22 8 3 13 12 10 19 -3 7 -1 16 4 19 6 4 10 1 10 -5 0 -8 6 -8 20 0 14 7 26
8 38 1 16 -10 16 -10 -1 -11 -10 0 -16 -4 -13 -9 8 -12 56 -11 56 1 0 10 21 8
96 -7 25 -6 31 -11 27 -26 -3 -10 0 -19 6 -19 6 0 11 16 11 35 0 35 0 35 -37
30 -35 -6 -40 -3 -60 29 -28 44 -28 52 -3 66 19 10 21 9 18 -17 -2 -21 2 -28
17 -31 l20 -4 -20 16 c-11 8 -15 16 -9 16 7 0 15 11 18 25 4 14 11 25 16 25 5
0 12 -11 16 -25 7 -29 21 -33 27 -7 4 16 5 16 6 0 1 -24 71 -26 71 -3 0 8 7
15 15 15 8 0 15 7 15 15 0 8 -7 15 -15 15 -8 0 -15 -5 -15 -11 0 -6 -7 -17
-15 -25 -12 -13 -15 -12 -25 6 -8 16 -8 20 4 20 10 0 16 13 18 38 3 43 27 51
43 15 17 -40 35 -28 22 15 -6 20 -15 40 -19 43 -4 3 5 15 22 27 16 13 30 18
30 13 0 -16 29 -1 41 20 6 13 6 25 -3 38 -16 26 -3 39 22 23 16 -10 20 -10 20
1 0 7 -4 17 -9 23 -6 5 -3 14 6 23 13 12 14 11 9 -6 -4 -14 -1 -23 9 -27 8 -3
15 -12 15 -21 0 -8 6 -15 14 -15 8 0 18 -5 22 -12 5 -8 -3 -9 -29 -5 -28 4
-37 2 -37 -9 0 -10 12 -14 40 -14 37 0 40 2 40 29 0 20 6 30 20 34 11 3 20 12
20 20 0 9 8 18 18 21 10 4 24 22 32 41 11 27 16 32 27 23 10 -8 11 -14 2 -25
-9 -10 -9 -20 2 -41 19 -36 33 -45 40 -24 6 14 9 12 18 -10 14 -36 26 -35 45
4 20 39 20 41 -2 29 -19 -10 -69 -4 -78 10 -3 5 2 19 10 31 14 19 16 19 22 5
10 -28 31 -19 36 14 5 34 -13 49 -36 30 -14 -11 -26 -5 -26 13 0 7 20 13 45
14 39 1 45 -1 45 -18 0 -11 4 -20 9 -20 5 0 12 -11 15 -25 4 -14 11 -25 16
-25 5 0 12 11 16 25 4 15 13 25 24 25 28 0 43 25 25 40 -11 9 -12 15 -2 26 31
34 37 44 37 59 0 21 -19 19 -27 -2 -4 -10 -12 -24 -19 -31 -10 -10 -16 -8 -28
10 -26 37 -20 54 24 67 38 11 41 11 65 -16 30 -35 30 -39 4 -54 -15 -8 -18
-13 -10 -19 9 -5 9 -9 -3 -13 -22 -9 -20 -24 4 -30 15 -4 22 1 26 19 3 13 12
24 19 24 7 0 15 7 19 15 7 19 53 19 90 0 35 -19 79 -20 73 -2 -2 6 -16 11 -31
10 -23 -2 -26 2 -26 28 0 26 3 29 21 24 12 -4 19 -3 16 2 -3 5 4 22 17 38 l23
28 11 -31 c17 -49 29 -38 34 28 3 36 11 66 21 78 9 10 17 26 17 35 0 13 9 17
40 17 31 0 40 4 40 17 0 9 8 24 18 33 15 15 19 15 40 2 20 -13 22 -13 22 2 0
9 7 16 16 16 9 0 14 6 11 13 -2 6 -12 12 -23 12 -10 0 -20 8 -22 18 -2 9 1 17
7 17 6 0 11 14 11 32 0 24 3 29 12 20 9 -9 9 -18 -1 -38 -14 -33 -13 -34 38
-41 28 -4 41 -2 41 6 0 6 -7 14 -15 17 -8 4 -13 10 -10 15 3 4 17 4 31 -1 13
-5 28 -9 32 -9 21 4 32 -3 32 -19 0 -10 7 -27 15 -38 14 -19 14 -19 15 3 0 32
10 53 26 53 8 0 14 -10 14 -24 0 -39 23 -53 84 -54 58 0 70 11 47 47 -8 12
-13 12 -35 -3 -14 -9 -26 -21 -26 -26 0 -6 -7 -10 -15 -10 -19 0 -19 16 0 24
25 9 17 34 -12 39 -16 2 -4 4 25 4 36 0 57 4 63 14 7 11 9 11 9 0 0 -8 7 -11
20 -8 12 3 27 -2 36 -11 13 -12 17 -13 24 -2 4 7 15 10 24 7 27 -11 47 3 40
27 -10 33 -36 59 -45 44 -6 -9 -11 -8 -24 2 -15 12 -19 11 -35 -9 -9 -14 -22
-21 -29 -17 -19 12 -12 36 12 45 13 5 30 23 37 40 13 32 50 44 50 16 0 -8 5
-15 11 -15 7 0 22 -11 35 -25 17 -19 19 -25 8 -25 -18 0 -11 -36 12 -60 12
-12 14 -10 14 16 0 31 1 31 60 37 58 6 110 29 110 48 0 15 -37 10 -50 -6 -19
-23 -40 -18 -40 10 0 14 6 25 13 25 9 0 8 3 -2 9 -11 7 -9 10 7 15 11 4 23 13
26 21 2 7 15 19 26 25 21 11 22 10 15 -19 -4 -20 -3 -31 4 -31 6 0 11 7 11 15
0 8 9 15 20 15 11 0 20 -7 20 -15 0 -8 4 -15 8 -15 5 0 8 24 8 53 0 28 -1 44
-3 35 -3 -11 -14 -18 -29 -18 -31 0 -31 15 0 35 13 9 26 25 29 36 5 17 11 19
44 13 21 -4 42 -13 46 -20 12 -20 40 -17 60 6 19 23 23 40 5 22 -7 -7 -24 -12
-39 -12 -26 0 -28 3 -27 43 1 23 3 34 6 24 5 -25 99 -19 94 6 -2 9 2 17 7 17
13 0 3 29 -17 53 -14 15 -13 17 6 17 15 0 24 -8 28 -25 8 -31 34 -55 34 -31 0
13 5 16 20 11 27 -9 60 3 60 22 0 8 -9 17 -20 20 -11 3 -20 9 -20 14 0 5 -9 9
-20 9 -11 0 -20 7 -20 15 0 8 6 15 14 15 8 0 16 -7 20 -15 3 -8 15 -15 26 -15
11 0 20 -7 20 -15 0 -10 11 -14 43 -12 39 2 43 4 39 25 -5 25 15 31 24 7 4 -8
17 -15 31 -15 16 0 22 -4 17 -12 -4 -7 5 -2 19 11 24 22 29 23 40 9 6 -8 22
-18 33 -20 30 -8 20 26 -12 41 -23 10 -34 41 -15 41 4 0 20 12 35 27 24 24 34
27 85 25 44 -2 62 2 79 17 l22 19 -27 5 c-16 3 -29 1 -31 -4 -5 -13 -40 -11
-45 4 -4 9 -8 8 -16 -3 -8 -11 -9 -6 -5 20 9 45 12 48 20 16 8 -34 40 -35 48
-1 5 18 13 25 32 25 31 0 42 25 20 49 -9 10 -16 23 -16 29 0 7 -4 12 -10 12
-5 0 -10 5 -10 12 0 9 3 9 12 0 7 -7 21 -12 33 -12 27 0 66 -67 46 -79 -10 -6
-9 -10 4 -15 36 -13 52 -7 48 18 -3 13 0 27 6 30 14 9 73 -22 66 -34 -4 -6 1
-10 9 -10 9 0 16 -7 16 -15 0 -9 6 -12 15 -9 18 7 20 34 3 34 -9 0 -9 3 0 12
8 8 15 8 28 -3 14 -11 18 -11 29 4 15 21 45 22 45 2 0 -8 9 -15 19 -15 11 0
22 -6 25 -12 5 -10 7 -10 12 0 3 6 18 12 33 12 15 0 36 7 47 15 16 13 17 16 4
25 -11 7 -16 5 -18 -5 -5 -23 -21 -18 -32 10 -7 18 -16 24 -32 22 -16 -1 -23
3 -23 18 0 11 -8 21 -17 23 -11 2 -18 -3 -18 -12 0 -9 -7 -16 -16 -16 -15 0
-15 2 0 25 9 13 16 31 16 40 0 18 -27 20 -32 3 -3 -8 -6 -7 -9 3 -3 7 3 22 13
32 19 18 20 18 25 -2 3 -12 9 -21 14 -21 5 0 9 -6 9 -14 0 -22 29 -41 42 -28
16 16 28 15 28 -3 0 -8 -5 -15 -11 -15 -5 0 -8 -4 -5 -9 7 -10 54 -2 62 11 4
5 -6 23 -22 39 -21 22 -24 29 -12 29 10 0 18 10 20 23 3 22 3 22 31 -5 36 -36
47 -35 47 2 0 28 -3 30 -37 31 -56 2 -96 12 -101 27 -4 14 35 17 40 3 2 -6 21
-6 51 0 61 14 65 40 7 59 -39 13 -39 13 -17 26 45 26 62 32 78 23 22 -11 32
-39 15 -39 -15 0 -24 -33 -18 -62 2 -10 12 -18 23 -18 19 0 23 12 20 57 -2 21
33 43 46 29 4 -3 -2 -6 -13 -6 -18 -1 -18 -1 -1 -11 13 -8 15 -15 7 -28 -5
-10 -6 -21 -3 -25 14 -14 64 -5 80 14 10 11 23 20 30 20 26 0 12 28 -16 33
-31 7 -44 26 -30 48 7 11 12 12 26 1 10 -7 26 -15 36 -18 9 -4 17 -11 17 -18
0 -6 11 -19 25 -28 20 -15 28 -16 52 -6 l28 12 -25 4 c-37 6 -53 22 -39 38 8
10 8 18 1 27 -9 11 2 13 58 13 47 -1 71 -5 75 -13 7 -19 42 -16 54 5 6 9 11
11 11 5 0 -16 80 -18 80 -3 0 6 16 10 35 10 28 0 33 -3 28 -16 -5 -13 -2 -15
16 -9 12 4 28 2 36 -5 10 -9 17 -5 31 19 20 33 34 40 34 17 0 -8 12 -24 27
-35 27 -22 44 -21 25 2 -6 7 -9 23 -5 35 4 16 1 22 -11 22 -9 0 -16 5 -16 10
0 6 6 10 14 10 16 0 26 30 26 82 l0 37 38 -6 c20 -3 39 -10 40 -15 2 -4 12 -8
22 -8 10 0 22 -9 25 -21 5 -14 13 -19 25 -16 10 3 29 -6 43 -19 15 -13 31 -24
37 -24 5 0 10 -5 10 -11 0 -7 8 -18 18 -25 15 -12 15 -15 2 -24 -8 -5 -10 -10
-4 -10 21 0 64 49 64 72 -1 20 -2 21 -11 6 -12 -22 -48 -24 -55 -3 -4 8 -14
15 -23 16 -10 0 -11 2 -4 6 10 4 10 10 -2 26 -19 27 -19 47 0 47 21 0 19 50
-2 66 -17 13 -17 13 0 14 11 0 17 8 17 23 0 15 9 29 25 37 14 7 25 17 25 22 0
4 8 8 18 7 10 0 12 -3 5 -6 -7 -2 -13 -16 -13 -30 0 -14 -8 -32 -17 -40 -17
-13 -17 -14 2 -11 11 2 24 12 29 23 5 11 19 28 32 38 23 17 24 17 24 -3 0 -12
-10 -25 -25 -32 -28 -12 -33 -28 -10 -28 13 0 13 -3 3 -20 -10 -16 -10 -23 4
-36 20 -20 47 -12 72 22 15 22 16 28 5 35 -8 5 -15 4 -17 -1 -6 -16 -22 -12
-22 5 0 8 5 15 10 15 6 0 10 10 10 21 0 21 2 20 27 -7 15 -16 26 -33 25 -38
-7 -21 19 -34 49 -24 27 9 40 28 20 28 -5 0 -7 8 -4 19 3 12 -2 20 -16 24 -27
7 -28 44 -1 52 10 3 28 1 39 -4 27 -15 41 -14 35 3 -3 8 0 24 6 37 10 17 14
19 21 8 4 -8 6 -24 2 -36 -3 -13 -1 -23 3 -23 5 0 15 -14 23 -31 7 -16 15 -28
18 -26 8 9 38 120 42 162 1 6 8 1 16 -9 18 -24 19 -68 3 -84 -9 -9 -8 -12 6
-12 16 0 18 6 14 49 -3 30 0 55 8 66 14 18 34 13 34 -10 0 -16 34 -38 44 -28
3 4 13 -2 20 -13 15 -19 15 -19 30 1 8 11 16 34 17 50 l2 30 4 -27 c2 -16 8
-28 13 -28 22 0 40 14 40 30 0 25 16 34 24 14 8 -21 8 -20 -10 -38 -8 -9 -11
-16 -5 -16 6 0 8 -13 5 -32 -6 -32 -6 -32 9 -13 9 11 17 28 17 38 0 32 26 18
52 -28 9 -16 24 -30 32 -30 23 0 20 19 -4 23 -17 3 -20 11 -20 61 0 31 5 62
12 69 15 15 54 16 63 2 3 -5 -1 -10 -9 -10 -12 0 -16 -10 -16 -39 0 -22 -5
-42 -12 -44 -7 -3 -1 -6 15 -6 22 -1 27 3 27 23 0 13 7 26 15 30 10 4 13 14 9
34 -4 19 -1 32 10 41 9 8 16 24 16 37 0 13 9 28 19 34 29 15 118 13 128 -3 4
-8 23 -17 41 -20 34 -7 71 -41 72 -65 0 -9 5 -10 16 -4 9 5 25 7 35 5 14 -4
19 0 19 15 0 16 -6 20 -29 20 -16 -1 -37 8 -50 21 -11 11 -25 21 -31 21 -20 0
-9 28 13 34 33 9 37 8 37 -9 0 -23 29 -18 41 8 9 20 77 57 107 57 17 0 15 -17
-3 -24 -8 -3 -15 -12 -15 -21 0 -8 -4 -15 -10 -15 -5 0 -10 7 -10 15 0 8 -7
15 -16 15 -14 0 -15 -7 -10 -40 5 -33 4 -38 -9 -34 -18 7 -20 -7 -3 -24 9 -9
16 -8 30 5 16 14 20 15 36 1 9 -9 22 -13 29 -11 6 2 13 -6 15 -19 4 -30 32
-30 36 0 4 25 22 31 22 6 0 -8 5 -12 10 -9 7 4 8 24 4 50 -3 24 -2 49 2 56 4
7 7 32 5 56 -2 38 0 43 18 43 18 0 21 -6 21 -40 0 -22 5 -40 10 -40 6 0 10 8
10 17 0 16 1 16 18 0 16 -17 16 -19 0 -31 -10 -7 -18 -18 -18 -25 0 -16 25
-14 40 4 17 20 36 19 44 -2 5 -11 0 -23 -13 -33 -22 -17 -37 -65 -23 -74 5 -3
18 10 28 29 10 19 21 35 24 35 4 0 16 9 28 21 12 11 27 17 33 13 8 -4 9 1 4
15 -4 13 -1 28 5 36 9 11 9 15 1 15 -6 0 -11 5 -11 10 0 7 6 8 16 2 12 -7 28
-2 55 16 49 32 37 52 -30 51 l-46 -1 35 -11 35 -11 -30 -4 c-16 -2 -32 -8 -35
-12 -3 -5 -10 -6 -16 -2 -7 4 -9 26 -5 57 5 43 9 50 29 53 17 3 25 -2 29 -17
6 -24 43 -29 43 -6 0 24 18 17 22 -7 4 -30 34 -35 43 -9 8 28 23 26 51 -4 26
-28 44 -32 44 -11 0 27 32 27 56 1 25 -27 33 -18 12 14 -6 11 -8 26 -3 37 7
18 8 18 12 2 5 -22 41 -24 49 -3 5 12 8 12 20 1 9 -10 28 -13 56 -9 35 3 40 2
25 -7 -18 -11 -18 -12 0 -30 25 -25 43 -8 36 36 -4 27 -2 34 11 34 9 0 16 -6
16 -14 0 -8 7 -16 15 -20 9 -3 15 0 15 9 0 8 5 15 10 15 14 0 12 37 -3 43 -9
4 -9 8 1 15 11 7 11 10 -2 15 -8 3 -18 2 -21 -3 -13 -22 -25 -8 -25 30 0 38
12 52 25 30 3 -5 17 -10 30 -10 14 0 29 -9 35 -20 15 -28 30 -25 30 5 0 14 9
35 19 46 26 28 61 18 61 -17 0 -21 3 -23 19 -15 26 14 50 -12 31 -34 -9 -11
-17 -12 -31 -4 -13 6 -19 6 -19 -1 0 -5 -18 -10 -40 -10 -29 0 -40 -4 -40 -15
0 -8 -4 -15 -10 -15 -5 0 -10 -9 -10 -20 0 -11 5 -20 10 -20 6 0 10 5 10 12 0
9 3 9 12 0 18 -18 48 -15 48 6 0 10 -5 23 -12 30 -9 9 2 12 50 12 51 0 62 3
62 17 0 14 2 14 20 -2 13 -12 20 -31 20 -55 0 -32 12 -50 34 -50 1 0 0 19 -2
41 -3 27 0 44 9 50 11 6 10 9 -4 15 -22 8 -22 34 1 34 20 1 53 27 70 55 11 20
11 20 12 0 1 -18 3 -17 25 8 29 33 32 47 9 47 -13 0 -14 3 -4 15 9 11 17 12
31 5 14 -8 23 -5 39 12 21 23 22 23 36 3 11 -14 17 -16 22 -8 5 7 13 9 21 4
11 -7 8 -12 -10 -21 -17 -10 -24 -10 -27 -1 -12 35 -82 -17 -82 -61 0 -15 5
-28 10 -28 6 0 10 11 10 25 0 14 5 25 10 25 6 0 10 7 10 15 0 8 9 15 20 15 11
0 20 -7 20 -15 0 -8 5 -15 10 -15 6 0 10 -18 10 -40 0 -33 3 -40 19 -40 23 0
40 22 23 28 -27 9 -9 21 26 17 49 -4 49 -4 33 -14 -10 -7 -11 -13 -2 -30 17
-30 28 -26 51 18 25 49 40 59 47 32 3 -12 12 -21 19 -21 8 0 14 -5 14 -11 0
-5 5 -7 11 -3 8 4 7 9 -2 15 -11 8 -11 11 4 20 9 5 17 19 17 29 0 24 -8 25
-32 4 -16 -16 -18 -15 -27 7 -7 18 -5 27 5 35 18 15 18 40 -1 48 -20 7 -20 46
0 46 9 0 15 -9 15 -25 0 -14 5 -25 10 -25 6 0 10 -9 10 -20 0 -11 -4 -20 -10
-20 -5 0 -10 -4 -10 -10 0 -5 9 -10 20 -10 17 0 20 7 20 40 0 22 5 40 10 40 6
0 10 18 10 40 0 37 11 52 24 31 3 -5 15 -7 25 -4 14 4 24 -3 36 -26 14 -29 14
-33 0 -47 -14 -15 -17 -14 -34 5 -10 11 -21 18 -25 14 -9 -10 -7 -101 3 -107
10 -7 22 18 17 37 -1 6 -1 9 1 5 8 -14 33 -8 33 8 0 15 23 44 34 44 4 0 4 -11
0 -25 -5 -19 -2 -25 11 -25 14 0 15 -3 5 -15 -7 -8 -21 -15 -31 -15 -11 0 -19
-7 -19 -15 0 -9 -7 -18 -15 -21 -8 -4 -15 -15 -15 -25 0 -10 -7 -19 -15 -19
-19 0 -20 -16 -1 -23 8 -3 24 7 36 23 24 31 40 31 40 -1 0 -21 16 -24 40 -9
12 8 12 10 -5 10 -16 0 -21 8 -22 35 -2 19 2 35 7 35 6 0 10 -4 10 -10 0 -5 7
-10 15 -10 21 0 19 27 -2 34 -10 2 0 2 22 -1 50 -7 49 -7 34 -32 -21 -32 -4
-36 34 -7 l34 26 30 -26 c22 -17 30 -32 27 -47 -3 -13 -1 -16 2 -7 4 8 15 22
26 31 22 20 24 33 2 25 -21 -8 -43 20 -44 54 0 14 -4 31 -9 39 -6 10 -12 4
-22 -23 -13 -35 -31 -46 -44 -26 -3 6 -19 10 -36 10 -16 0 -29 5 -29 10 0 6 5
10 10 10 6 0 10 5 10 10 0 6 -8 5 -20 -2 -22 -14 -39 -3 -22 14 18 18 15 25
-13 32 -32 8 -34 44 -2 50 12 3 31 7 42 9 11 3 -2 5 -30 6 -39 1 -46 4 -32 12
9 5 17 17 17 24 0 8 7 15 15 15 8 0 19 9 25 21 11 20 12 20 25 2 14 -19 10
-37 -6 -28 -11 8 -11 -6 0 -24 9 -15 22 -12 59 15 21 16 22 15 22 -4 0 -11 6
-23 12 -26 7 -3 2 -3 -11 0 -17 5 -22 3 -17 -7 3 -8 9 -22 12 -31 8 -24 84
-26 84 -3 0 11 11 15 40 15 41 0 54 13 23 24 -10 3 -26 11 -36 18 -14 11 -19
11 -26 0 -6 -10 -10 -10 -21 3 -9 11 -10 18 -1 29 10 12 16 12 39 0 40 -21 62
-18 62 8 l0 21 23 -21 c16 -15 26 -18 40 -11 11 7 17 7 17 -1 0 -5 22 -10 50
-10 28 0 50 -5 50 -10 0 -6 10 -15 23 -19 21 -9 21 -9 2 -17 -11 -4 -26 -13
-32 -20 -13 -13 -18 -34 -7 -34 12 0 49 24 57 36 4 7 14 11 22 8 11 -5 15 1
15 22 0 16 4 35 8 42 11 17 41 5 53 -22 8 -17 8 -16 4 8 -5 21 -3 27 7 23 7
-3 20 -8 29 -12 11 -4 18 0 22 14 4 18 1 21 -31 21 -28 0 -33 3 -24 12 14 14
16 44 3 52 -5 3 -33 -17 -62 -44 -53 -50 -89 -64 -89 -35 0 8 5 15 10 15 6 0
10 9 10 19 0 10 7 21 15 25 8 3 15 12 15 21 0 12 16 15 96 15 61 0 93 4 89 10
-4 6 12 9 42 9 29 -1 37 -4 20 -6 -15 -2 -32 -13 -38 -25 -8 -14 -17 -18 -34
-14 -33 8 -41 -11 -16 -36 19 -17 27 -18 53 -9 39 14 38 14 38 -5 0 -9 -14
-30 -32 -46 l-32 -30 27 -14 c22 -12 30 -12 47 -2 24 15 26 28 5 28 -8 0 -15
9 -15 20 0 11 7 20 15 20 18 0 21 46 3 53 -7 3 15 5 50 4 34 0 62 -2 62 -3 0
-2 -12 -10 -27 -18 -18 -10 -22 -15 -12 -16 9 0 19 -9 22 -20 4 -14 10 -18 22
-14 10 4 15 14 12 25 -3 11 -4 19 -2 19 2 0 10 3 18 6 9 3 16 -3 20 -15 7 -27
27 -27 27 -1 0 11 6 20 14 20 8 0 16 8 18 17 3 15 4 15 21 -1 9 -10 17 -22 17
-27 0 -5 -8 -13 -17 -16 -19 -7 -43 -28 -43 -37 0 -3 12 -6 28 -6 26 -1 26 -1
8 -15 -18 -14 -17 -15 22 -15 35 0 42 3 42 20 0 11 -7 20 -15 20 -8 0 -15 5
-15 10 0 6 7 10 15 10 8 0 15 5 15 10 0 6 6 10 13 10 20 0 37 43 25 63 -6 12
-5 17 5 17 8 0 17 -13 20 -29 4 -16 13 -35 20 -43 11 -10 12 -17 3 -30 -8 -13
-8 -23 0 -36 13 -19 44 -29 44 -13 0 6 -7 11 -15 11 -8 0 -15 9 -15 20 0 11 7
20 15 20 18 0 20 20 3 20 -8 1 -6 6 5 14 24 19 22 25 -15 41 -31 14 -32 15
-11 21 22 6 22 6 2 27 -10 11 -19 27 -19 34 0 10 -128 12 -642 13 -354 0
-3666 3 -7362 7 l-6718 6 6 -3869z"/>
<path d="M27817 21594 c-2 -2 -946 -4 -2099 -4 -1153 -1 -2109 -5 -2124 -10
-25 -7 -22 -9 26 -11 30 -1 45 -4 33 -6 -14 -3 -20 -9 -16 -19 7 -20 -17 -18
-33 4 -13 16 -14 16 -8 0 5 -15 0 -18 -23 -18 -16 0 -34 5 -41 12 -7 7 -12 8
-12 2 0 -6 -14 -11 -30 -11 -17 0 -26 4 -19 8 6 4 8 12 5 18 -8 12 2 14 49 11
17 -1 26 2 22 7 -11 11 -187 13 -187 2 0 -5 21 -10 48 -11 l47 -1 -55 -6 c-36
-4 -54 -10 -53 -18 2 -8 -8 -13 -27 -13 -18 0 -29 5 -27 12 1 8 -23 13 -75 16
-65 3 -78 1 -78 -12 0 -8 -8 -20 -17 -26 -14 -9 -11 -10 15 -5 24 5 34 3 38
-9 8 -20 24 -21 24 -2 0 8 6 17 13 19 6 3 2 6 -11 6 -13 1 -21 5 -18 9 3 4 21
6 42 4 25 -3 32 -7 23 -13 -10 -6 -11 -9 -1 -9 18 0 15 -27 -4 -34 -15 -6 -15
-8 0 -25 12 -13 14 -21 6 -26 -18 -11 -70 -15 -70 -5 0 6 -7 10 -16 10 -18 0
-44 -23 -44 -40 0 -17 26 -40 44 -40 9 0 16 5 16 11 0 6 7 9 15 5 8 -3 21 1
29 9 10 10 35 15 74 15 45 0 61 4 66 16 8 21 7 31 -2 18 -4 -6 -24 -9 -46 -6
-26 3 -34 7 -25 13 10 6 8 9 -8 9 -16 0 -23 6 -23 20 0 15 7 20 29 20 17 0 31
6 35 16 3 9 15 14 28 12 14 -2 22 2 21 10 -2 7 9 12 30 12 l32 0 -35 -30 c-19
-16 -46 -31 -60 -33 l-25 -3 25 -11 c22 -9 30 -6 63 24 35 31 40 33 51 18 12
-16 46 -12 46 6 0 5 5 9 10 9 14 0 13 -53 -1 -67 -9 -9 -7 -16 5 -29 22 -22
28 -14 34 46 4 44 7 50 27 50 13 0 25 -5 27 -12 3 -8 12 -8 35 2 18 8 29 18
27 22 -3 4 0 8 5 8 6 0 11 7 11 15 0 11 11 15 43 14 29 -2 34 -3 15 -6 -16 -2
-28 -10 -28 -18 0 -7 -8 -15 -17 -17 -11 -2 -1 -11 29 -27 51 -26 88 -22 88
10 0 10 -5 19 -12 19 -8 0 -8 3 -3 9 6 5 36 6 70 1 l60 -7 -53 -2 c-48 -1 -52
-3 -38 -16 21 -21 75 -19 95 4 14 16 34 20 124 24 59 2 107 0 107 -5 0 -4 -29
-8 -65 -8 -53 0 -63 -3 -59 -15 8 -19 -7 -19 -32 0 -10 8 -23 14 -29 15 -7 0
-7 -3 0 -8 6 -4 10 -16 10 -27 0 -16 6 -19 28 -17 24 2 27 -1 27 -25 0 -15 3
-38 6 -51 6 -19 11 -22 33 -17 14 4 33 12 41 19 23 20 49 26 56 14 4 -5 0 -14
-7 -19 -7 -4 -10 -11 -7 -15 4 -3 14 1 23 9 8 9 24 19 35 22 11 3 20 11 20 16
0 5 7 9 15 9 8 0 15 7 15 15 0 8 5 15 10 15 6 0 10 -7 10 -15 0 -8 -4 -15 -8
-15 -4 0 -13 -14 -19 -30 -8 -22 -20 -32 -44 -37 l-32 -6 26 -14 c15 -7 31
-22 37 -33 14 -26 30 -26 30 0 0 11 -6 20 -14 20 -7 0 -19 6 -25 14 -10 12 -8
13 11 9 13 -4 26 -10 29 -15 3 -5 13 -6 23 -2 14 5 15 9 4 15 -10 6 -10 11 0
21 9 9 12 9 12 0 0 -7 7 -12 15 -12 8 0 20 -9 27 -20 15 -23 56 -27 64 -5 4 8
12 15 20 15 8 0 14 3 14 8 -1 13 -27 42 -39 42 -14 0 -15 -17 -1 -25 18 -11
10 -25 -15 -25 -22 0 -25 4 -25 39 0 25 -5 41 -15 45 -17 6 -21 36 -4 36 6 0
17 -6 25 -14 7 -8 23 -12 34 -9 14 4 20 0 20 -11 0 -9 18 -34 40 -55 25 -25
38 -44 34 -54 -3 -9 -1 -25 6 -36 7 -14 7 -21 0 -21 -5 0 -10 -5 -10 -11 0 -6
7 -9 17 -7 17 3 25 25 26 69 0 25 1 26 29 12 16 -9 40 -12 56 -8 20 4 33 1 42
-10 16 -19 46 -19 54 0 7 19 45 19 52 0 5 -12 10 -12 27 -3 17 9 23 8 32 -6
22 -38 48 -61 52 -48 3 6 15 12 28 12 13 0 26 -6 28 -12 3 -7 6 -1 6 15 1 27
21 39 21 12 0 -8 4 -15 9 -15 5 0 11 -9 14 -20 6 -23 27 -27 27 -6 0 8 3 21 6
30 4 11 1 16 -11 16 -10 0 -15 6 -13 17 5 25 28 28 28 4 0 -24 25 -29 33 -7 7
18 94 33 108 19 6 -6 -11 -15 -48 -23 -32 -8 -61 -18 -65 -23 -3 -6 5 -21 18
-35 16 -18 20 -30 13 -38 -7 -8 -6 -13 1 -16 5 -1 14 -23 19 -48 5 -25 9 -36
10 -25 1 11 5 26 10 34 7 11 12 8 23 -14 l15 -28 7 27 c6 23 9 26 21 16 19
-16 19 -36 1 -43 -8 -3 -20 -15 -26 -26 -9 -17 -8 -21 5 -21 8 0 15 7 15 15 0
23 16 18 34 -10 19 -29 20 -35 5 -35 -14 0 -59 -51 -58 -65 1 -5 5 -21 9 -35
l8 -25 1 25 c1 19 4 21 13 12 14 -14 28 -16 28 -3 0 5 -9 13 -20 16 -11 3 -20
11 -20 16 0 14 53 58 62 52 16 -9 7 -33 -12 -33 -27 0 -25 -12 4 -40 27 -24
52 -22 63 6 4 11 -1 23 -15 35 -23 18 -29 39 -12 39 6 0 10 7 10 16 0 10 -6
13 -19 9 -13 -4 -23 2 -35 19 -23 36 -21 38 29 30 30 -4 45 -3 45 5 0 6 -8 11
-18 11 -22 0 -50 59 -33 70 7 4 11 13 9 21 -2 8 4 14 12 14 8 0 14 -6 12 -13
-1 -6 4 -12 10 -13 7 0 3 -4 -9 -9 -27 -11 -30 -35 -5 -44 9 -3 25 -11 36 -18
15 -10 20 -10 23 0 3 6 11 12 19 12 8 0 14 5 14 10 0 6 11 10 25 10 18 0 25
-5 25 -19 0 -11 12 -29 26 -40 25 -20 25 -41 1 -41 -22 0 -47 -40 -47 -75 0
-19 5 -35 10 -35 6 0 10 9 10 19 0 10 7 21 15 25 8 3 15 12 15 21 0 18 46 21
53 3 4 -10 7 -10 18 0 11 10 10 12 -4 12 -13 0 -17 9 -17 40 l0 40 44 0 c43 0
44 0 50 -40 3 -22 10 -40 15 -40 5 0 12 -7 15 -15 8 -22 -24 -32 -39 -12 -10
14 -15 14 -38 2 -15 -7 -37 -15 -49 -17 -13 -2 -24 -11 -26 -21 -3 -14 2 -17
25 -15 28 3 30 -2 18 -34 -6 -15 -2 -18 24 -18 34 0 36 2 21 31 -8 13 -7 19 0
19 6 0 9 4 5 9 -3 5 -1 12 5 16 5 3 10 1 10 -5 0 -7 7 -10 15 -7 8 4 17 2 20
-3 4 -6 1 -10 -4 -10 -17 0 -13 -37 4 -44 8 -3 15 -12 15 -21 0 -8 7 -15 15
-15 18 0 19 -12 4 -27 -8 -8 -8 -13 0 -17 6 -4 11 -1 11 8 0 8 6 16 13 19 7 3
2 12 -15 26 -16 13 -28 29 -28 37 0 17 26 19 34 2 3 -7 3 -2 -1 12 -5 22 -4
23 10 12 11 -10 17 -10 22 -1 5 6 20 9 39 5 24 -5 27 -3 16 5 -11 8 -8 9 15 4
39 -9 44 -14 22 -29 -9 -7 -17 -18 -17 -25 0 -10 -13 -15 -32 -12 -5 0 -8 -3
-8 -9 0 -16 46 -12 60 5 8 9 21 13 36 9 15 -4 24 -2 24 5 0 6 -7 11 -15 11 -9
0 -15 9 -15 25 0 14 -6 25 -13 25 -7 0 -25 6 -40 13 -29 13 -37 47 -12 47 17
0 56 -20 66 -34 4 -4 16 -3 27 3 28 15 52 14 52 -2 0 -7 -15 -18 -32 -25 l-32
-12 21 -21 c37 -38 103 3 103 65 0 26 4 36 16 36 12 0 14 7 8 32 -6 29 -5 31
9 20 12 -11 19 -11 35 -1 16 10 23 10 36 0 21 -18 21 -45 0 -37 -24 9 -44 -18
-44 -59 0 -28 -5 -38 -20 -42 -27 -7 -25 -25 6 -54 l25 -24 30 34 c16 19 29
38 29 42 0 5 7 9 15 9 8 0 15 -4 15 -10 0 -5 10 -10 23 -11 12 0 16 -3 10 -6
-15 -6 -18 -53 -3 -53 6 0 10 -7 10 -15 0 -9 9 -15 21 -15 17 0 20 4 15 25 -8
31 23 49 77 46 26 -1 39 3 43 14 4 9 3 19 -1 23 -4 4 -10 1 -12 -5 -6 -15 -49
-17 -58 -3 -3 6 0 10 8 10 8 0 22 10 30 23 15 21 16 21 16 2 1 -34 34 9 34 45
0 16 4 30 9 30 4 0 8 -4 8 -10 0 -5 17 -10 37 -10 36 0 36 0 17 -19 -16 -15
-20 -16 -24 -4 -5 13 -8 12 -20 -2 -20 -24 -16 -86 6 -102 15 -11 16 -17 6
-33 -21 -34 -25 -93 -8 -115 15 -19 15 -19 17 10 1 17 1 43 0 59 -3 31 -1 30
54 -9 17 -12 46 -26 65 -31 30 -8 35 -14 38 -43 3 -29 6 -32 26 -27 20 5 25 0
35 -34 6 -22 14 -40 16 -40 9 0 45 40 45 50 0 6 -10 10 -22 11 -13 0 -17 3
-10 6 6 2 12 14 12 26 1 28 23 57 44 57 9 0 16 5 16 10 0 6 7 10 15 10 8 0 15
-7 15 -15 0 -8 -6 -15 -14 -15 -16 0 -46 -26 -46 -41 0 -12 83 -12 96 0 11 11
74 -13 74 -28 0 -17 -20 -23 -35 -11 -17 14 -45 -2 -45 -27 0 -7 -8 -17 -17
-20 -14 -5 -9 -9 17 -14 20 -5 40 -3 47 3 16 13 44 -7 37 -26 -2 -6 5 -22 17
-35 20 -21 23 -22 34 -7 18 24 49 21 42 -4 -3 -13 0 -20 9 -20 8 0 14 10 14
25 0 21 5 25 30 25 17 0 30 -5 31 -12 0 -7 6 -2 12 11 9 19 9 25 -1 29 -14 4
-16 32 -2 32 6 0 10 -7 10 -15 0 -8 4 -15 10 -15 5 0 13 -18 16 -40 6 -34 10
-40 30 -40 16 0 24 6 24 18 1 16 1 16 14 0 7 -10 18 -18 25 -18 6 0 11 8 11
18 0 14 2 15 10 2 8 -13 12 -13 27 3 17 17 17 18 -5 24 -16 4 -20 8 -12 13 17
10 3 31 -15 23 -8 -3 -15 -13 -15 -22 0 -12 -6 -9 -24 12 -13 15 -29 26 -36
25 -7 -2 -15 3 -17 10 -3 6 0 12 6 12 6 0 11 6 11 14 0 11 -10 13 -40 9 -26
-4 -40 -2 -40 6 0 6 4 11 10 11 5 0 7 6 4 14 -3 8 -13 12 -23 9 -20 -5 -51 21
-51 43 0 19 26 18 34 -1 3 -8 12 -15 20 -15 7 0 16 7 20 15 11 29 26 15 26
-25 0 -41 14 -54 24 -22 3 9 3 38 1 65 -3 27 -1 47 5 47 6 0 10 -9 10 -20 0
-12 8 -32 17 -47 16 -24 16 -26 -1 -39 -18 -13 -18 -15 3 -59 23 -48 40 -57
48 -25 6 22 18 26 28 10 9 -15 41 -12 55 5 17 20 5 32 -15 15 -15 -13 -37 -3
-57 25 -5 6 -8 5 -8 -2 0 -7 -7 -13 -15 -13 -19 0 -19 14 1 34 20 21 29 20 45
-5 17 -25 46 -17 52 14 4 22 4 22 6 0 2 -40 21 -25 21 17 0 22 5 40 10 40 6 0
10 -18 10 -40 0 -22 -4 -40 -8 -40 -15 0 -42 -78 -28 -84 6 -2 1 -8 -11 -11
-13 -4 -23 -10 -23 -14 1 -10 71 -42 81 -36 5 4 19 8 31 10 13 3 33 17 46 32
14 18 25 24 30 17 4 -6 15 -13 25 -17 23 -9 22 -33 -3 -40 -11 -3 -20 -13 -20
-23 0 -14 3 -15 12 -6 7 7 31 12 55 12 l43 0 0 40 c0 25 -5 40 -12 40 -8 0 -6
6 5 17 16 16 18 16 34 0 11 -11 13 -17 5 -17 -7 0 -12 -15 -12 -40 0 -29 4
-40 15 -40 8 0 15 5 15 10 0 15 77 12 83 -2 2 -8 8 -9 13 -4 5 5 4 11 -3 13
-14 5 -18 33 -5 33 22 0 42 -38 36 -68 -5 -27 -3 -33 17 -41 30 -11 73 -67 58
-76 -14 -10 -59 22 -59 43 -1 12 -5 9 -16 -11 -16 -30 -12 -47 14 -47 14 0 14
-2 3 -9 -11 -7 -10 -14 5 -39 18 -32 39 -34 29 -3 -8 26 4 51 24 50 9 0 11 -3
5 -5 -16 -7 -4 -53 17 -64 17 -10 17 -12 1 -40 -21 -36 -26 -37 -40 -5 -8 18
-19 25 -40 25 -24 0 -32 7 -48 39 -18 38 -48 61 -79 61 -18 0 -20 17 -3 22 23
8 -3 28 -28 22 -13 -3 -31 -1 -39 6 -22 18 -60 8 -63 -18 -4 -28 22 -39 43
-18 20 20 55 5 55 -23 0 -21 32 -39 38 -22 4 13 32 15 32 3 0 -4 -5 -13 -12
-20 -9 -9 -7 -13 5 -18 9 -3 17 -12 17 -20 0 -8 5 -14 10 -14 6 0 10 -15 10
-32 l1 -33 15 28 c8 15 21 27 29 27 21 0 20 -56 -1 -68 -13 -7 -14 -11 -4 -17
8 -5 20 0 31 13 12 15 28 22 53 22 25 0 36 4 36 15 0 8 7 15 15 15 8 0 15 -6
15 -14 0 -8 -7 -21 -15 -30 -21 -20 -19 -26 10 -26 18 0 25 5 25 19 0 11 5 23
10 26 12 7 -19 54 -36 55 -7 0 -19 11 -28 25 -15 23 -15 28 -1 54 8 17 19 33
25 36 13 8 24 -20 16 -42 -6 -15 -8 -15 -16 -3 -14 22 -23 5 -10 -19 13 -24
30 -28 30 -6 0 19 19 20 26 1 3 -8 11 -13 19 -10 7 3 15 -2 18 -10 5 -12 12
-13 41 -4 20 6 36 15 36 20 0 4 7 8 15 8 17 0 21 -26 4 -32 -14 -5 -28 -78
-19 -103 10 -29 24 1 21 46 -1 30 2 39 18 44 12 3 22 19 26 38 11 54 16 67 26
67 15 0 10 -56 -6 -70 -20 -16 -19 -36 1 -44 22 -9 24 -8 18 9 -4 8 -1 15 5
15 6 0 11 -4 11 -10 0 -5 7 -10 16 -10 12 0 14 -4 6 -12 -5 -8 -6 -22 -1 -33
12 -30 11 -35 -8 -35 -14 0 -13 -3 5 -23 24 -25 28 -37 12 -37 -5 0 -10 7 -10
15 0 8 -7 15 -15 15 -23 0 -18 -28 7 -41 16 -9 23 -9 26 0 5 15 39 14 45 -1 2
-7 8 -9 13 -5 5 4 2 12 -5 16 -7 5 -10 14 -6 20 4 8 14 4 31 -14 28 -30 30
-47 9 -65 -18 -15 -20 -40 -2 -40 12 0 28 24 43 63 4 11 17 17 35 17 27 0 29
-3 29 -40 0 -29 4 -40 15 -40 8 0 15 5 15 10 0 6 7 10 15 10 8 0 15 9 15 20 0
11 -7 20 -15 20 -8 0 -15 5 -15 10 0 6 9 10 19 10 11 0 21 5 23 12 3 7 10 8
17 4 11 -7 11 -10 0 -17 -7 -4 -10 -11 -6 -16 4 -4 18 -1 30 7 15 9 47 13 98
12 65 -2 78 1 94 18 21 24 45 26 45 5 0 -8 -5 -15 -10 -15 -6 0 -5 -6 2 -14 7
-7 18 -11 25 -9 7 3 16 -9 21 -29 9 -36 -4 -53 -20 -24 -8 15 -11 15 -25 1
-16 -16 -11 -29 10 -31 7 0 27 -2 45 -2 36 -2 45 -22 10 -22 -34 0 -68 -11
-68 -21 0 -5 9 -9 20 -9 12 0 20 -7 20 -17 0 -13 3 -14 12 -5 7 7 20 12 30 12
11 0 15 5 12 14 -4 10 6 15 40 18 41 3 45 1 40 -15 -9 -28 38 -18 51 11 14 32
37 29 29 -4 -6 -25 -5 -26 20 -20 21 5 26 3 26 -13 0 -10 6 -21 14 -24 10 -4
17 8 25 40 l12 46 24 -23 25 -23 0 21 c0 12 10 27 22 33 14 8 18 14 10 17 -21
7 -13 24 11 20 12 -2 22 -10 22 -18 0 -20 74 -27 86 -8 4 7 11 9 16 5 4 -5 1
-13 -7 -18 -11 -8 -12 -12 -2 -16 14 -6 16 -33 2 -33 -5 0 -10 7 -10 15 0 10
-10 15 -27 16 -16 0 -47 1 -71 2 -33 2 -42 -1 -42 -15 0 -9 6 -18 13 -21 6 -2
4 -3 -6 -1 -9 1 -24 -4 -31 -12 -8 -8 -22 -14 -30 -14 -9 0 -16 -8 -16 -20 0
-13 7 -20 19 -20 10 0 22 -7 25 -16 4 -10 13 -13 26 -9 11 4 20 2 20 -4 0 -6
7 -11 15 -11 8 0 15 -9 15 -20 0 -11 -7 -20 -15 -20 -8 0 -15 -5 -15 -10 0 -6
11 -8 28 -4 l27 7 -29 -25 c-34 -31 -29 -68 9 -68 13 0 25 -5 27 -12 3 -7 10
-8 17 -4 9 6 6 11 -11 20 -24 12 -38 56 -18 56 7 0 11 13 9 33 -4 63 -2 66 38
60 25 -4 34 -3 29 5 -3 6 -2 13 4 17 5 3 10 1 10 -4 0 -6 7 -11 15 -11 8 0 15
-5 15 -10 0 -6 -7 -13 -15 -16 -8 -4 -15 -13 -15 -22 0 -12 -3 -13 -12 -4 -17
17 -48 15 -48 -3 0 -8 8 -15 19 -15 11 0 21 -9 25 -22 6 -21 7 -21 17 -5 5 9
17 17 24 17 20 0 55 36 55 56 0 18 -23 44 -39 44 -6 0 -11 9 -11 20 0 28 28
25 32 -2 2 -13 13 -27 26 -33 27 -12 27 -19 1 -61 -18 -29 -18 -33 -4 -28 15
6 16 4 3 -17 -7 -13 -17 -28 -23 -32 -6 -5 -2 -6 8 -3 10 3 21 6 23 6 2 0 4 7
4 15 0 8 9 15 20 15 11 0 20 -6 20 -14 0 -18 48 -28 135 -30 66 -1 108 -16 85
-31 -15 -9 -12 -25 5 -25 8 0 15 -4 15 -10 0 -14 -23 -13 -38 2 -9 9 -16 6
-32 -12 -11 -13 -20 -29 -20 -37 0 -17 47 -17 57 1 4 7 22 17 38 23 19 6 35
21 44 41 16 35 36 40 67 17 17 -13 17 -14 2 -15 -10 0 -18 5 -18 12 0 19 -26
-12 -35 -41 -7 -23 -6 -23 31 -17 25 4 34 3 25 -3 -7 -5 -10 -14 -7 -20 4 -6
2 -11 -3 -11 -6 0 -11 5 -11 10 0 15 -16 12 -34 -5 -8 -8 -22 -15 -30 -15 -27
0 -17 -16 19 -30 31 -12 35 -18 35 -51 0 -21 -6 -40 -12 -42 -7 -3 1 -5 17 -5
17 0 24 2 18 5 -7 2 -13 16 -13 29 0 21 4 24 40 24 37 0 40 2 40 27 0 21 -3
24 -12 15 -16 -16 -25 -15 -32 4 -4 10 1 22 11 30 22 16 33 18 33 4 0 -17 39
-50 59 -50 11 0 22 8 24 18 4 13 5 11 6 -5 1 -19 -4 -23 -30 -23 -21 0 -39 -9
-59 -32 l-29 -31 22 -24 c46 -51 61 -63 79 -63 14 0 18 8 18 40 l0 40 -47 1
c-27 1 -39 4 -28 6 11 3 24 11 28 19 11 19 37 18 37 -1 0 -12 4 -13 18 -6 12
7 24 4 41 -10 24 -19 46 -26 37 -10 -3 4 1 17 9 27 14 20 31 13 37 -16 2 -8
12 -22 22 -31 11 -9 16 -21 12 -28 -6 -8 -15 -4 -32 16 l-23 27 -21 -21 c-11
-12 -20 -28 -20 -35 1 -8 5 -7 14 5 17 23 38 22 54 -3 11 -18 9 -19 -16 -16
-15 2 -20 1 -12 -1 28 -9 40 -25 40 -52 0 -19 8 -29 30 -39 34 -15 39 -38 13
-58 -10 -7 -15 -16 -10 -20 8 -9 47 29 47 47 0 16 51 59 71 59 8 0 27 -6 42
-12 22 -11 27 -20 27 -49 0 -33 2 -35 35 -36 30 -1 35 2 35 21 0 30 16 44 46
38 23 -4 35 -32 14 -32 -15 0 -12 -48 3 -53 8 -3 5 -11 -10 -28 -12 -13 -24
-37 -27 -54 -5 -24 -5 -26 3 -9 5 11 21 29 37 38 15 10 37 29 48 43 l21 24 27
-26 c15 -14 32 -25 38 -25 6 0 15 -11 20 -25 5 -14 14 -25 19 -25 17 0 24 22
11 30 -16 10 -6 40 13 40 21 0 38 -25 31 -44 -3 -9 -10 -16 -15 -16 -5 0 -9
-13 -9 -30 0 -16 5 -30 10 -30 6 0 10 5 10 10 0 13 37 13 42 -1 5 -14 38 0 38
17 0 20 24 17 41 -3 30 -39 41 -65 30 -76 -16 -16 -13 -37 4 -37 8 0 15 5 15
10 0 14 27 12 34 -2 5 -10 7 -10 12 0 3 6 15 12 27 12 16 0 18 -3 8 -9 -19
-12 3 -51 29 -51 25 0 26 -27 3 -33 -17 -4 -17 -5 0 -6 19 -1 23 -21 6 -38 -6
-6 -8 -17 -4 -24 5 -8 15 5 27 36 l19 49 -30 24 c-17 13 -31 28 -31 33 0 16
77 11 84 -6 7 -19 26 -20 26 -1 0 23 29 27 47 6 10 -10 30 -21 45 -25 27 -7
44 -41 24 -49 -6 -2 8 -5 32 -7 23 -1 48 -2 54 -3 7 -1 14 7 16 17 4 20 -34
25 -41 5 -2 -7 -8 -9 -13 -5 -5 4 -2 12 6 17 12 7 12 12 2 22 -6 6 -12 23 -12
37 0 19 3 22 9 12 5 -8 18 -12 29 -9 32 9 50 -7 34 -32 -10 -17 -9 -24 15 -50
26 -30 53 -40 53 -19 0 21 25 35 50 28 16 -4 19 -7 8 -8 -25 -1 -23 -21 2 -21
11 0 20 5 20 10 0 6 5 10 10 10 21 0 9 -41 -15 -52 -27 -12 -36 -44 -9 -34 9
3 20 6 25 6 5 0 9 9 9 20 0 24 35 28 44 5 3 -8 11 -15 19 -15 7 0 14 -13 15
-32 2 -30 2 -31 -11 -14 -14 19 -14 19 -25 1 -8 -16 -13 -17 -26 -6 -9 7 -16
12 -17 10 -5 -17 -5 -68 0 -67 3 0 17 0 30 -1 22 -1 23 -2 7 -26 -20 -30 -21
-41 -1 -25 8 6 19 9 26 5 8 -6 8 -9 -1 -15 -9 -6 -7 -11 9 -19 11 -7 21 -16
21 -21 0 -16 -36 -12 -50 5 -19 23 -40 18 -40 -10 0 -14 6 -25 13 -25 8 0 8
-3 -2 -9 -12 -8 -12 -12 -2 -25 20 -24 55 -21 48 3 -3 13 0 18 8 15 7 -3 19 2
28 10 17 18 47 21 47 6 0 -5 9 -10 19 -10 11 0 21 -6 24 -12 3 -10 9 -8 24 5
26 23 33 22 33 -8 0 -14 5 -25 10 -25 6 0 10 -8 10 -18 0 -10 12 -22 30 -29
l30 -11 0 47 c0 45 1 47 28 45 17 0 28 -7 31 -19 2 -14 -2 -17 -19 -12 -14 3
-23 0 -27 -9 -8 -21 12 -40 29 -27 7 5 24 10 37 11 13 0 31 7 40 15 11 11 31
13 67 10 46 -5 52 -3 57 16 3 12 13 21 24 20 16 -1 16 -2 1 -6 -10 -3 -18 -16
-20 -36 -3 -29 -6 -32 -42 -35 -23 -2 -42 2 -46 9 -12 19 -28 2 -22 -26 3 -19
0 -25 -13 -25 -10 0 -24 8 -31 18 -12 15 -13 12 -14 -25 0 -42 1 -43 39 -49
28 -5 41 -12 43 -25 2 -14 7 -16 18 -9 13 9 13 12 -4 25 -11 8 -16 21 -13 30
7 17 42 21 52 5 3 -5 16 -10 27 -10 11 0 32 -12 46 -27 l26 -28 6 25 6 25 12
-22 c16 -30 15 -53 -3 -53 -8 0 -15 -4 -15 -10 0 -5 17 -10 38 -10 20 0 48 -7
62 -15 14 -8 32 -17 40 -21 8 -4 18 -12 23 -18 5 -8 10 -6 16 4 11 16 27 7 16
-10 -7 -12 -73 -4 -89 11 -19 17 -26 9 -26 -31 0 -33 3 -40 20 -40 23 0 27 18
5 26 -23 9 -7 24 26 24 19 0 29 -5 29 -15 0 -10 8 -13 28 -9 38 6 60 -9 43
-30 -8 -9 -9 -16 -3 -16 16 0 21 -38 6 -44 -18 -7 -17 -26 1 -50 14 -18 15
-18 24 8 6 14 17 26 26 26 23 0 19 53 -6 70 -12 8 -25 25 -30 38 -5 12 -15 22
-24 22 -13 0 -12 3 2 20 10 11 29 20 43 20 25 -1 24 -1 -5 -14 l-30 -12 23
-19 c12 -11 22 -25 22 -32 0 -18 10 -16 26 4 11 16 13 16 19 -10 4 -15 11 -27
16 -27 9 0 41 -31 79 -77 14 -17 15 -16 18 15 4 40 16 41 32 2 11 -27 11 -32
-6 -45 -11 -8 -25 -15 -31 -15 -7 0 -13 -4 -13 -10 0 -5 -9 -10 -20 -10 -11 0
-20 -4 -20 -10 0 -5 5 -10 10 -10 6 0 10 -7 10 -15 0 -24 17 -17 24 10 4 14
11 25 16 25 18 0 58 46 57 65 -2 15 4 20 23 20 20 0 25 -5 23 -22 -2 -13 2
-23 7 -23 14 0 12 -38 -2 -42 -8 -3 -9 -11 -3 -24 8 -19 9 -19 12 1 4 19 24
35 66 51 9 3 17 10 17 15 0 5 18 9 40 9 33 0 40 -3 40 -20 0 -16 -7 -20 -36
-20 -40 0 -77 -16 -69 -31 4 -5 1 -9 -4 -9 -6 0 -11 -9 -11 -20 0 -17 7 -20
40 -20 22 0 43 6 47 13 4 8 16 16 25 20 14 5 19 0 24 -21 4 -15 12 -30 18 -34
6 -5 1 -8 -11 -8 -26 0 -32 -30 -10 -49 17 -14 27 -4 27 26 0 34 30 30 31 -4
0 -16 3 -22 6 -15 7 17 33 15 33 -3 0 -7 -8 -19 -17 -24 -24 -14 -4 -14 36 0
37 13 40 25 9 35 -13 3 -32 16 -43 27 -16 18 -17 20 -2 14 9 -3 17 -2 17 3 0
6 7 10 15 10 8 0 15 -7 15 -16 0 -26 26 -44 64 -44 25 0 36 -4 36 -15 0 -11
-11 -15 -40 -15 -41 0 -53 -13 -22 -25 16 -6 16 -7 0 -19 -21 -15 -24 -40 -5
-33 6 2 11 10 10 16 -2 6 10 11 28 11 32 0 32 0 26 -44 -6 -40 -4 -44 20 -55
17 -8 23 -15 16 -19 -8 -5 -9 -13 -3 -22 8 -12 13 -13 27 -2 31 21 67 33 86
28 16 -4 18 -1 12 21 -5 23 -4 24 10 10 8 -9 15 -20 15 -26 0 -6 4 -11 10 -11
16 0 50 -33 50 -48 0 -10 -7 -12 -25 -8 -20 5 -25 3 -25 -13 0 -11 9 -21 21
-24 27 -7 20 -29 -12 -38 -17 -5 -18 -7 -6 -8 22 -1 69 22 86 43 12 14 10 15
-18 10 -27 -6 -30 -4 -25 11 5 13 14 15 37 11 16 -3 33 -6 38 -6 5 0 9 -7 9
-15 0 -8 5 -15 10 -15 6 0 10 -7 10 -16 0 -11 -6 -14 -20 -9 -11 3 -20 3 -20
0 0 -14 31 -36 47 -34 37 3 44 -1 38 -21 -4 -11 -2 -20 4 -20 6 0 11 -8 11
-18 0 -9 10 -23 22 -31 19 -12 23 -11 35 5 9 12 10 21 3 28 -8 8 -13 7 -19 -3
-12 -19 -33 -3 -26 20 4 11 2 19 -4 19 -6 0 -11 9 -11 20 0 11 -4 20 -10 20
-17 0 -11 22 12 41 36 32 49 25 32 -16 -13 -31 -13 -38 0 -50 8 -8 26 -15 40
-15 18 0 26 -5 26 -18 0 -9 9 -23 20 -30 11 -7 20 -18 20 -25 0 -6 5 -30 12
-52 10 -37 12 -38 18 -15 4 14 2 31 -3 38 -7 9 -6 17 2 25 10 9 15 8 25 -5 18
-25 40 -23 33 2 -4 15 1 22 19 26 13 3 28 12 35 20 15 19 39 18 39 -1 0 -9
-12 -18 -30 -21 -27 -6 -30 -10 -30 -45 0 -37 2 -39 30 -39 26 0 30 4 30 26 0
26 1 26 25 10 32 -21 41 -20 77 5 36 26 47 19 24 -16 l-16 -25 47 0 c45 -1 47
-2 24 -14 -20 -11 -21 -14 -6 -19 9 -4 28 -7 41 -7 30 0 32 -29 4 -55 -19 -17
-21 -17 -38 -2 -10 10 -27 17 -38 17 -18 -1 -18 -1 -1 -14 9 -7 17 -18 17 -23
0 -5 9 -18 20 -28 19 -17 21 -17 40 0 11 10 20 24 20 32 0 18 13 16 40 -7 13
-11 31 -20 42 -20 20 0 25 -16 6 -23 -7 -2 -9 -8 -5 -13 4 -5 12 -2 18 6 8 13
10 13 19 0 8 -13 12 -12 24 6 21 30 60 36 80 12 19 -22 20 -35 4 -41 -7 -3 -5
-6 6 -6 10 -1 25 7 32 16 11 16 15 15 44 -16 26 -26 30 -35 19 -42 -9 -7 -5
-8 12 -3 15 3 30 1 33 -5 4 -6 29 -11 56 -11 29 0 50 -5 53 -12 3 -7 3 3 0 23
-5 34 -3 36 36 49 23 7 41 19 41 26 0 6 7 14 15 18 8 3 15 10 15 16 0 6 -5 8
-11 4 -6 -3 -15 0 -20 7 -13 21 -11 29 9 29 20 0 45 24 55 53 4 10 12 15 18
11 8 -4 9 0 4 15 -4 12 -2 21 4 21 6 0 11 18 11 40 0 35 3 40 24 40 22 0 24 5
30 70 4 39 4 79 1 90 -5 14 -2 20 10 20 14 0 16 -7 11 -37 -7 -43 8 -80 20
-50 3 10 4 29 2 42 -4 21 -1 25 19 25 21 0 22 -3 13 -20 -16 -30 4 -64 29 -48
10 6 26 8 36 4 15 -6 12 -10 -21 -27 -52 -28 -60 -37 -47 -50 6 -6 9 -19 6
-28 -4 -10 1 -8 14 7 22 24 49 29 56 10 2 -7 8 -9 13 -5 5 4 2 12 -5 16 -11 7
-11 14 0 39 11 26 19 31 56 34 24 2 43 0 43 -4 0 -5 13 -8 30 -8 23 0 31 5 36
25 3 14 10 25 15 25 12 0 11 -17 -1 -25 -5 -3 -10 -19 -10 -36 0 -31 -9 -36
-28 -17 -8 8 -15 8 -26 -1 -17 -14 -36 -7 -36 15 0 8 -7 14 -15 14 -17 0 -20
-16 -5 -25 6 -3 10 -15 10 -26 0 -16 -3 -18 -19 -9 -32 17 -36 -8 -6 -32 15
-11 30 -29 34 -40 7 -19 8 -19 34 2 15 12 27 28 27 36 0 8 5 14 10 14 14 0 12
-13 -5 -36 -8 -10 -15 -25 -15 -31 0 -18 27 -16 34 2 7 20 86 21 86 1 0 -8 12
-19 28 -26 52 -22 72 -35 72 -47 0 -7 8 -13 18 -13 14 0 15 -2 2 -10 -8 -5
-12 -10 -10 -12 35 -23 46 -24 59 -10 13 13 16 13 28 -4 12 -16 15 -17 23 -4
5 8 10 24 11 35 0 11 5 29 10 40 7 15 7 12 3 -13 -6 -32 -4 -34 17 -28 13 3
18 3 12 0 -7 -3 -13 -23 -13 -45 0 -21 -4 -39 -10 -39 -5 0 -10 -4 -10 -9 0
-5 24 -11 53 -13 28 -3 60 -9 70 -13 12 -5 17 -3 17 8 0 8 -6 18 -12 20 -10 4
-10 6 0 6 7 1 10 6 7 11 -3 6 5 10 19 10 14 0 28 -4 31 -10 10 -15 25 -12 25
6 0 9 7 14 18 12 11 -3 16 -12 15 -26 -2 -15 3 -22 14 -22 14 0 14 -2 1 -17
-18 -22 -23 -69 -5 -55 20 16 70 25 61 11 -4 -7 -3 -9 4 -5 5 3 29 -12 51 -34
39 -39 57 -35 26 6 -18 24 -19 34 -1 34 7 0 16 -9 19 -20 6 -24 25 -26 33 -5
4 9 -3 24 -17 36 -17 15 -20 22 -11 31 9 9 16 7 31 -6 18 -16 21 -16 44 -1 14
9 28 23 31 31 4 9 20 14 50 14 39 0 44 -3 48 -25 5 -23 2 -25 -28 -25 -35 0
-48 -22 -20 -33 20 -8 86 3 86 14 0 5 7 9 15 9 18 0 20 -16 3 -23 -7 -3 -1 -6
15 -6 17 -1 27 -6 27 -16 0 -8 -4 -15 -10 -15 -19 0 -10 -29 13 -42 26 -14
115 -19 137 -7 11 6 8 8 -12 9 -18 0 -28 5 -28 15 0 24 35 17 50 -10 11 -21
11 -29 0 -50 -16 -30 -15 -30 30 -39 25 -4 31 -3 20 4 -13 9 -13 10 1 10 8 0
24 -7 35 -15 19 -14 54 -20 54 -9 0 9 -28 34 -39 34 -14 0 -61 64 -61 83 0 12
8 17 26 17 23 0 24 -1 10 -16 -21 -21 -20 -31 5 -37 12 -3 22 0 25 8 3 7 14
11 25 8 23 -6 24 -12 2 -28 -19 -14 -12 -42 12 -52 9 -3 28 3 43 14 32 22 71
20 51 -3 -6 -8 -17 -14 -24 -14 -8 0 -11 -8 -8 -20 3 -11 12 -20 19 -20 8 0
17 -7 20 -15 5 -11 11 -12 25 -5 14 8 27 6 48 -5 42 -21 48 -19 56 15 8 35 25
32 18 -3 -4 -17 2 -26 21 -35 29 -13 34 -30 11 -38 -8 -4 -15 -12 -15 -20 0
-9 -12 -14 -35 -14 -19 0 -35 -3 -35 -6 0 -4 16 -22 36 -40 25 -24 34 -40 29
-53 -3 -10 -1 -30 4 -45 9 -21 17 -26 43 -25 l33 1 -32 9 c-36 10 -46 45 -17
56 15 5 26 -4 38 -32 3 -6 9 -3 15 5 9 13 14 13 42 -2 39 -23 52 -23 74 2 23
25 45 26 45 1 0 -19 -33 -31 -89 -31 -22 -1 -24 -2 -8 -11 29 -17 19 -29 -23
-29 -23 0 -40 -5 -40 -11 0 -8 24 -9 80 -4 70 6 80 5 80 -9 0 -9 8 -16 19 -16
24 0 36 -16 19 -23 -7 -3 2 -8 20 -12 26 -6 33 -12 29 -26 -4 -13 0 -19 12
-19 14 0 17 8 15 40 -1 29 2 40 12 40 10 0 14 -13 14 -41 l0 -42 47 6 c43 5
46 4 28 -9 -10 -8 -22 -14 -27 -14 -4 0 -8 -9 -8 -19 0 -14 16 -25 60 -43 64
-25 83 -54 30 -46 -24 4 -30 1 -28 -11 4 -22 52 -26 72 -6 18 19 49 15 81 -10
14 -10 15 -13 4 -9 -13 4 -18 -3 -23 -31 -4 -19 -4 -40 -1 -45 3 -6 -1 -10
-10 -10 -9 0 -15 -6 -12 -12 5 -16 74 -13 94 4 13 10 12 13 -4 19 -16 7 -16 8
0 8 9 1 17 6 17 12 0 17 45 5 48 -13 4 -19 -31 -58 -51 -58 -7 0 -18 -5 -24
-11 -13 -13 13 -49 34 -49 7 0 13 -5 13 -12 0 -6 8 -3 20 7 18 17 20 17 26 1
4 -10 18 -22 31 -27 29 -11 26 -30 -5 -44 -24 -10 -29 -25 -10 -25 6 0 20 -7
30 -16 17 -16 17 -18 0 -30 -16 -12 -16 -13 4 -14 22 0 64 49 64 75 0 8 -9 20
-20 27 -11 7 -20 21 -20 30 0 24 16 23 23 -2 3 -12 14 -20 26 -20 18 0 21 -6
21 -40 0 -23 -5 -40 -11 -40 -6 0 -1 -11 12 -24 20 -21 25 -22 32 -10 10 17
27 9 27 -12 0 -8 -7 -14 -15 -14 -8 0 -15 -4 -15 -10 0 -5 -10 -10 -22 -10
-15 0 -19 -3 -12 -10 11 -11 64 8 64 23 0 4 6 7 14 7 7 0 20 9 27 20 14 19 15
19 62 -17 27 -22 47 -46 47 -57 0 -17 -3 -16 -26 8 -29 28 -54 34 -54 12 0 -7
12 -25 26 -40 30 -30 91 -37 100 -11 4 8 10 12 15 9 14 -8 10 -24 -6 -24 -8 0
-15 -4 -15 -10 0 -5 -9 -10 -20 -10 -16 0 -20 -7 -20 -30 0 -16 -4 -30 -10
-30 -22 0 20 -64 51 -79 21 -10 35 -25 37 -39 3 -18 10 -22 42 -22 28 0 40 5
43 18 4 14 5 13 6 -3 0 -12 -3 -25 -9 -31 -6 -6 7 -8 35 -6 25 2 45 9 45 15 0
7 4 7 12 -1 18 -18 75 -15 87 6 10 16 10 16 11 0 0 -10 -5 -18 -11 -18 -6 0
-9 -7 -6 -15 7 -18 -9 -30 -17 -13 -3 9 -9 8 -20 -6 -9 -11 -28 -20 -43 -21
-14 0 -28 -6 -31 -13 -2 -7 -18 -12 -35 -13 -18 0 -26 -3 -19 -6 14 -6 16 -33
2 -33 -5 0 -10 -7 -10 -16 0 -13 7 -12 40 7 22 13 40 30 40 38 1 9 7 1 15 -18
19 -42 19 -51 0 -51 -8 0 -15 5 -15 11 0 5 -5 7 -11 3 -8 -4 -8 -9 0 -17 6 -6
11 -21 11 -34 0 -31 24 -20 55 26 l25 36 0 -39 c0 -33 2 -37 15 -26 8 7 15 21
15 32 0 11 5 18 11 16 12 -4 12 -8 3 -55 -4 -19 -12 -33 -20 -33 -8 0 -14 -4
-14 -10 0 -5 -9 -10 -19 -10 -11 0 -23 -9 -26 -20 -7 -22 -40 -27 -48 -7 -3 6
-6 2 -6 -10 -1 -21 4 -23 44 -23 36 0 45 -3 45 -17 0 -14 5 -12 25 11 22 25
26 27 39 13 13 -12 14 -21 4 -47 -8 -26 -8 -34 3 -41 24 -15 26 -11 27 57 0
37 3 69 6 72 12 11 18 -9 18 -59 -1 -30 4 -59 10 -67 9 -10 6 -14 -10 -19 -27
-7 -28 -20 -2 -28 25 -8 26 -21 3 -35 -16 -10 -16 -10 3 -5 12 3 34 -1 50 -10
16 -8 37 -15 47 -15 9 0 17 -5 17 -11 0 -7 -8 -18 -17 -25 -17 -12 -16 -13 4
-14 19 0 22 6 26 53 l3 52 2 -52 c2 -56 18 -72 25 -25 2 15 4 5 5 -23 0 -27
-2 -44 -5 -37 -7 18 -25 15 -22 -5 1 -10 1 -25 0 -33 -1 -13 -2 -13 -11 0 -7
11 -10 6 -10 -20 0 -26 3 -31 10 -20 7 11 10 -2 10 -42 0 -36 4 -58 11 -58 7
0 9 10 7 25 -4 17 -1 25 8 25 17 0 24 29 24 100 0 30 3 1514 6 3298 l6 3243
-5290 -2 c-2910 -1 -5293 -3 -5295 -5z m-2044 -374 c7 0 20 -14 30 -31 14 -25
15 -34 6 -46 -19 -22 31 -69 57 -55 18 10 18 11 -1 19 -11 4 -21 17 -22 29 -2
17 2 20 28 16 16 -2 36 1 44 8 16 13 35 6 35 -15 0 -18 -20 -30 -29 -17 -4 6
-11 5 -19 -4 -10 -12 -10 -14 3 -14 8 0 15 -7 15 -15 0 -9 -9 -15 -21 -15 -16
0 -20 -5 -16 -19 4 -15 -2 -20 -32 -25 -30 -5 -39 -2 -59 20 -14 17 -21 33
-17 45 4 11 2 19 -4 19 -6 0 -11 5 -11 10 0 6 7 10 15 10 24 0 18 37 -7 43
-12 4 -19 9 -15 13 3 4 2 14 -3 24 -5 10 -6 21 -2 25 4 4 8 0 10 -9 2 -9 9
-16 15 -16z m807 -305 c0 -21 27 -30 44 -16 10 9 15 8 19 -3 4 -10 -1 -16 -15
-18 -12 -2 -23 -9 -26 -15 -6 -19 48 -16 83 5 30 18 65 19 65 1 0 -5 -7 -9
-15 -9 -9 0 -15 -9 -15 -21 0 -19 -4 -21 -40 -16 -22 3 -40 1 -40 -3 0 -5 -8
-11 -17 -13 -14 -4 -12 -5 5 -6 12 0 22 -6 22 -13 0 -6 -3 -8 -6 -5 -4 3 -15
2 -26 -4 -15 -8 -26 -6 -46 7 -38 25 -96 84 -89 91 4 3 23 -11 43 -31 36 -36
63 -43 72 -18 2 7 -5 12 -18 12 -16 0 -21 6 -20 23 5 53 6 52 -105 35 -11 -2
-22 1 -25 7 -6 12 38 22 103 24 36 1 47 -3 47 -14z"/>
<path d="M14880 21574 c0 -11 -15 -14 -60 -14 -33 0 -60 -4 -60 -10 0 -5 7
-10 15 -10 8 0 15 -4 15 -10 0 -5 9 -10 19 -10 30 0 34 -17 10 -34 -19 -13
-20 -18 -9 -31 12 -14 15 -14 35 5 12 11 27 20 33 20 7 0 12 9 12 19 0 11 8
22 18 24 12 3 10 5 -8 7 l-25 2 25 7 c14 4 24 13 23 19 -2 8 15 12 55 11 31
-1 44 -4 29 -6 -23 -4 -26 -7 -16 -19 9 -11 8 -14 -7 -15 -14 -1 -13 -3 6 -9
22 -7 22 -8 4 -9 -11 -1 -36 -9 -55 -18 -32 -17 -34 -21 -35 -73 -1 -33 1 -40
3 -17 l4 37 60 0 c52 0 59 -2 59 -20 0 -22 15 -27 26 -9 3 6 0 15 -7 20 -11 7
-10 9 4 9 11 0 15 5 11 11 -4 7 -21 9 -46 5 -59 -10 -44 15 18 30 58 14 105
32 84 34 -8 0 -25 3 -37 6 -17 5 -23 2 -23 -10 0 -9 -4 -16 -10 -16 -5 0 -10
6 -10 14 0 8 -8 17 -17 19 -17 4 -17 5 0 6 9 0 17 8 17 16 0 11 11 15 42 15
23 0 38 3 34 7 -3 4 -58 8 -121 9 -94 2 -115 0 -115 -12z"/>
<path d="M16945 21570 c4 -6 -7 -10 -25 -10 -18 0 -33 -6 -36 -15 -4 -8 -17
-15 -30 -15 -16 0 -22 -4 -18 -14 4 -10 -6 -20 -31 -30 -27 -12 -36 -21 -33
-35 2 -11 -6 -27 -17 -35 -20 -16 -20 -16 5 -36 14 -11 37 -20 52 -20 14 0 28
-6 31 -12 3 -10 10 -8 23 5 18 16 17 17 -24 17 -35 0 -42 3 -42 19 0 16 8 21
43 24 l42 4 -42 1 c-47 2 -50 6 -29 28 8 7 16 19 19 26 3 9 12 6 31 -11 29
-27 47 -21 28 9 -16 26 -15 50 2 50 8 0 16 7 20 15 9 24 37 6 30 -19 -3 -13 1
-27 8 -34 19 -15 88 -4 88 14 0 16 -12 18 -26 4 -15 -15 -54 17 -54 45 0 23 3
24 88 28 l87 3 -98 2 c-63 1 -96 -2 -92 -8z"/>
<path d="M22620 21550 c0 -5 5 -10 11 -10 6 0 9 -6 6 -12 -3 -9 8 -14 34 -15
22 -1 45 -3 52 -4 6 -1 22 1 35 5 22 7 23 6 20 -41 -2 -37 -7 -49 -22 -51 -10
-2 -22 2 -27 10 -7 11 -12 11 -29 0 -17 -10 -25 -10 -36 -1 -23 19 -4 32 39
26 43 -6 70 0 61 14 -3 5 -32 9 -65 9 -35 0 -59 4 -59 11 0 5 -4 7 -10 4 -17
-11 -32 5 -19 21 9 11 7 14 -9 14 -14 0 -22 -8 -24 -22 -2 -17 -11 -24 -30
-26 -27 -3 -40 -22 -16 -22 9 0 9 -3 0 -12 -15 -15 -16 -48 -2 -48 6 0 15 -10
20 -22 9 -19 10 -16 7 17 -3 28 2 45 15 60 18 19 20 19 32 3 10 -13 15 -15 24
-6 9 9 12 2 12 -30 0 -40 11 -54 25 -32 9 15 19 12 45 -12 l23 -21 43 23 c30
15 44 30 45 44 2 33 -2 51 -12 54 -5 2 -9 12 -9 23 0 14 7 19 30 19 17 0 30
-4 30 -10 0 -5 14 -10 30 -10 23 0 30 -4 30 -20 0 -13 7 -20 20 -20 11 0 20
-4 20 -10 0 -5 -9 -10 -20 -10 -11 0 -20 5 -20 10 0 6 -9 10 -19 10 -11 0 -22
6 -24 13 -4 8 -6 9 -6 0 -1 -6 6 -18 14 -26 8 -8 12 -17 10 -19 -3 -2 11 -10
30 -17 29 -10 39 -10 62 3 15 8 22 15 16 16 -7 0 -19 16 -27 35 -10 23 -22 35
-35 35 -13 0 -21 9 -26 30 -6 29 -9 30 -61 30 -37 0 -53 -4 -49 -11 4 -6 22
-9 40 -7 19 1 37 -1 41 -5 4 -4 -45 -7 -109 -7 -99 0 -116 2 -111 15 5 11 -1
15 -20 15 -14 0 -26 -4 -26 -10z"/>
<path d="M16035 21513 c14 -13 21 -14 36 -4 24 14 39 7 39 -19 0 -11 -13 -25
-31 -34 -29 -14 -31 -14 -36 2 -5 20 -43 48 -43 32 0 -5 -6 -10 -14 -10 -26 0
-11 -34 22 -53 31 -16 36 -17 58 -3 32 22 33 21 20 -18 -9 -29 -13 -33 -29
-24 -21 11 -68 -13 -66 -35 0 -9 2 -9 6 1 7 17 41 15 61 -5 16 -16 17 -15 21
2 5 27 31 65 45 65 6 0 18 5 26 10 13 9 13 11 1 19 -12 8 -11 12 4 27 17 17
17 17 11 -3 -6 -19 -2 -21 39 -25 25 -2 45 0 45 4 0 5 -7 8 -15 8 -8 0 -15 6
-15 14 0 14 -29 27 -68 30 -13 1 -27 8 -32 15 -4 8 -29 15 -55 17 -44 4 -46 3
-30 -13z"/>
<path d="M22160 21524 c0 -3 5 -14 10 -25 7 -13 7 -19 0 -19 -5 0 -10 -4 -10
-9 0 -5 7 -8 16 -7 9 0 19 -4 21 -11 3 -7 -11 -11 -41 -11 -25 1 -52 -5 -61
-12 -13 -11 -15 -8 -15 19 0 17 -4 31 -10 31 -5 0 -10 10 -10 22 0 21 -1 21
-17 6 -14 -15 -14 -19 -2 -34 12 -16 12 -17 -5 -11 -15 6 -17 4 -12 -15 3 -13
6 -39 6 -58 0 -34 0 -34 16 -12 19 28 57 28 95 1 16 -11 35 -18 42 -16 7 3 5
6 -5 6 -25 1 -23 31 2 31 11 0 20 4 20 8 0 5 10 14 23 20 12 6 16 11 10 11 -7
1 -13 10 -13 21 0 11 -5 20 -11 20 -7 0 -9 10 -7 25 4 21 1 25 -18 25 -13 0
-24 -3 -24 -6z"/>
<path d="M15758 21459 c-4 -27 -38 -50 -45 -31 -7 20 -33 14 -33 -8 0 -19 -7
-20 -130 -20 -123 0 -130 1 -130 20 0 13 -7 20 -20 20 -13 0 -20 -7 -20 -20 0
-11 -4 -20 -10 -20 -5 0 -10 -6 -10 -13 0 -15 41 -37 68 -37 15 0 15 2 2 10
-11 7 -7 10 17 10 26 0 30 -3 26 -20 -6 -24 12 -27 25 -4 8 15 12 15 41 -1 18
-9 40 -15 49 -13 12 2 6 9 -18 20 -20 10 -27 18 -18 18 22 0 88 -31 88 -42 0
-4 4 -8 9 -8 5 0 7 9 4 20 -5 17 0 20 33 20 48 1 74 19 74 54 0 30 26 36 33 9
4 -17 5 -17 6 0 1 10 9 17 21 17 11 0 20 4 20 8 0 5 12 13 28 19 24 10 19 11
-40 12 -61 1 -67 -1 -70 -20z"/>
<path d="M10880 20494 c0 -6 -17 -16 -38 -22 -43 -13 -78 -45 -67 -61 4 -7 -8
-11 -34 -11 l-41 0 0 -45 c0 -44 1 -45 28 -39 15 4 31 13 35 21 6 10 17 13 33
9 14 -4 24 -2 24 4 0 14 37 13 42 -2 3 -8 14 -7 38 5 18 9 39 17 45 17 7 0 16
7 19 16 5 12 16 15 41 12 22 -2 35 0 35 7 0 7 -12 10 -29 7 -16 -2 -39 1 -50
8 -17 9 -26 9 -38 -1 -13 -11 -17 -10 -29 5 -9 12 -10 25 -4 35 5 10 5 23 -1
32 -5 7 -9 9 -9 3z"/>
<path d="M2502 15228 c-17 -22 -40 -150 -40 -224 0 -102 -5 -115 -44 -103 -17
4 -41 17 -52 28 -12 10 -45 24 -74 30 -68 14 -72 14 -72 -3 0 -8 -5 -16 -10
-18 -6 -2 -13 -26 -16 -53 -5 -45 -2 -56 30 -109 l36 -58 -37 -33 c-41 -36
-84 -50 -111 -35 -9 5 -38 18 -64 29 -41 17 -49 18 -74 5 -15 -8 -33 -13 -40
-10 -10 4 -20 -7 -29 -34 -28 -83 -17 -116 65 -202 76 -80 85 -106 49 -144
-16 -17 -22 -37 -23 -81 -1 -32 -5 -64 -9 -70 -4 -7 -8 -32 -9 -57 0 -35 6
-52 30 -83 44 -56 48 -77 17 -91 -51 -23 -77 -16 -215 65 -25 14 -47 29 -50
34 -3 4 -39 20 -80 37 -94 36 -140 36 -176 -3 -22 -24 -25 -35 -21 -73 3 -24
14 -57 26 -73 24 -33 28 -77 6 -85 -42 -16 9 -134 57 -134 15 0 30 -4 33 -10
3 -5 14 -10 24 -10 18 0 71 -49 71 -66 0 -14 -43 -54 -58 -54 -7 0 -28 -14
-48 -32 -31 -28 -35 -37 -32 -73 3 -37 7 -42 53 -68 34 -18 58 -25 75 -22 102
24 113 23 193 -6 43 -16 90 -29 105 -29 19 0 37 -12 62 -42 34 -39 40 -42 98
-46 58 -4 64 -7 93 -43 l31 -39 -27 -10 c-34 -13 -182 -13 -190 0 -3 6 -15 10
-27 10 -11 0 -32 6 -46 14 -87 47 -199 92 -250 101 -34 5 -47 3 -74 -16 -18
-13 -40 -31 -49 -40 -17 -20 -60 -14 -114 15 -16 9 -34 16 -38 16 -5 0 -23 11
-41 25 -18 14 -36 25 -40 25 -4 0 -16 9 -28 20 -22 20 -109 50 -146 50 -11 0
-37 -16 -58 -35 -20 -19 -41 -35 -45 -35 -5 0 -9 -7 -9 -15 0 -24 -41 -39
-113 -41 -38 -2 -75 -8 -82 -14 -10 -8 -14 -7 -18 2 -7 20 -59 -22 -80 -65
-15 -30 -16 -41 -7 -52 7 -8 9 -15 6 -15 -11 0 58 -55 84 -67 14 -6 68 -21
121 -33 l95 -22 23 -49 c27 -61 66 -84 125 -75 23 3 57 9 77 12 38 6 89 -16
89 -40 1 -13 35 -56 46 -56 4 0 15 -7 24 -15 15 -13 25 -14 61 -4 24 6 59 13
77 16 29 5 32 3 32 -20 0 -30 -23 -51 -47 -43 -19 6 -75 -38 -86 -67 -10 -26
-53 -31 -101 -13 -24 9 -66 19 -93 23 -47 5 -53 3 -90 -31 -34 -30 -48 -36
-86 -36 -25 0 -49 5 -52 10 -3 6 -33 10 -66 10 -67 0 -101 -17 -129 -63 -16
-25 -16 -33 -4 -74 21 -69 91 -142 138 -143 10 0 35 -13 55 -29 20 -15 47 -31
61 -34 14 -4 39 -18 55 -31 41 -34 27 -53 -59 -82 -65 -22 -95 -44 -96 -72 0
-7 11 -30 25 -52 33 -52 34 -90 2 -90 -12 0 -31 6 -42 13 -126 86 -187 93
-234 26 -33 -48 -37 -49 -97 -38 -27 5 -79 10 -116 10 -54 0 -70 -3 -87 -20
-23 -23 -27 -68 -8 -91 16 -20 112 -70 136 -70 10 0 41 -22 69 -50 38 -37 62
-52 99 -61 85 -20 123 -32 123 -40 0 -5 22 -15 50 -23 27 -8 70 -27 95 -41 42
-25 51 -27 111 -20 60 6 69 5 105 -19 21 -15 39 -30 39 -34 0 -19 150 -155
207 -187 20 -12 42 -30 50 -42 14 -20 12 -22 -31 -41 -57 -26 -264 -56 -330
-49 -63 7 -135 38 -213 95 -17 12 -34 22 -38 22 -3 0 -21 11 -39 25 -18 14
-36 25 -40 25 -4 0 -38 25 -76 55 -38 30 -71 55 -74 55 -3 0 -17 5 -33 12 -30
13 -48 15 -133 17 -30 1 -86 7 -125 13 -60 10 -80 18 -140 63 -38 29 -97 79
-130 111 -81 78 -112 104 -119 97 -3 -4 -6 1 -6 9 0 9 -8 18 -19 21 -16 4 -20
-3 -25 -41 -3 -24 -6 -2670 -6 -5878 l0 -5834 19200 0 19200 0 0 6739 0 6740
-22 15 c-12 9 -30 16 -40 16 -10 0 -18 5 -18 10 0 6 -4 10 -9 10 -5 0 -22 5
-38 12 -15 6 -34 12 -42 14 -8 1 -17 8 -21 14 -10 16 -110 50 -149 50 -29 0
-44 -9 -89 -56 -52 -54 -58 -57 -131 -69 -102 -18 -147 -39 -166 -75 -14 -27
-14 -31 10 -66 22 -32 75 -73 75 -57 0 3 6 1 13 -4 6 -6 35 -16 62 -22 127
-30 124 -29 135 -70 6 -22 23 -53 39 -70 25 -27 36 -31 78 -31 27 0 54 5 61
12 9 9 12 9 12 0 0 -7 7 -12 15 -12 9 0 18 -7 22 -15 3 -9 18 -22 34 -31 16
-8 29 -19 29 -25 0 -5 13 -23 29 -38 l30 -29 -29 -12 c-23 -10 -35 -9 -62 4
-36 17 -158 29 -158 16 0 -5 -12 -4 -27 1 -53 17 -349 70 -494 88 -36 5 -75
14 -87 20 -12 6 -22 8 -22 4 0 -4 -75 -8 -168 -8 -209 0 -310 -8 -348 -28 -16
-9 -83 -69 -149 -133 -66 -64 -140 -130 -165 -147 -25 -17 -54 -39 -65 -49
-11 -10 -43 -39 -72 -66 -82 -75 -84 -76 -134 -76 -34 0 -55 6 -71 20 -45 40
-78 49 -172 49 -87 0 -110 -4 -221 -40 -121 -39 -277 -75 -323 -75 -38 0 -82
35 -82 65 0 12 -9 33 -19 46 -17 21 -28 24 -98 26 -107 2 -103 1 -103 21 0 24
27 48 62 57 38 10 68 42 68 74 0 24 -6 31 -43 45 -23 9 -58 16 -77 16 -19 0
-52 5 -72 11 -31 8 -38 15 -38 34 0 30 39 43 76 26 43 -19 88 -14 114 14 13
14 58 41 99 61 81 38 91 47 91 80 0 29 -26 50 -90 71 -48 16 -55 21 -52 42 2
13 18 35 35 50 66 53 95 90 90 111 -7 26 -37 48 -85 61 -44 11 -46 24 -18 76
30 57 26 90 -15 110 -28 14 -73 -1 -115 -37 -19 -17 -52 -40 -72 -50 l-36 -20
-56 25 c-36 16 -65 23 -84 19 -26 -5 -29 -3 -40 35 -8 24 -27 53 -50 73 -31
26 -60 67 -49 68 107 9 183 22 195 34 22 21 0 69 -42 91 -18 10 -39 27 -45 38
-11 17 -10 24 8 46 58 72 52 106 -20 105 -24 0 -70 -8 -101 -18 -37 -12 -69
-16 -90 -12 -95 20 -94 20 -128 -16 -35 -37 -73 -95 -91 -139 -12 -32 -51 -53
-68 -36 -18 18 -12 78 13 132 13 29 59 88 109 140 48 50 96 109 107 132 24 47
19 89 -12 99 -31 9 -103 -15 -139 -47 -60 -54 -74 -41 -82 77 -8 104 -66 184
-123 170 -36 -9 -44 -43 -44 -186 0 -109 -3 -131 -19 -151 l-18 -22 -35 21
c-20 12 -42 29 -49 38 -7 8 -29 24 -48 34 -71 35 -106 -11 -68 -90 14 -29 114
-151 133 -163 44 -26 85 -148 72 -215 -8 -38 -11 -41 -30 -31 -11 6 -29 32
-39 57 -41 97 -81 170 -97 176 -9 3 -23 9 -30 12 -7 3 -28 -11 -47 -32 -41
-45 -80 -49 -136 -15 -58 35 -119 24 -119 -22 0 -21 21 -50 86 -119 60 -64 67
-102 25 -145 -38 -40 -41 -85 -8 -121 12 -14 16 -22 10 -18 -16 9 -63 -37 -63
-61 0 -23 28 -66 64 -96 22 -19 27 -31 23 -48 -8 -31 -84 -81 -112 -73 -11 3
-87 39 -170 80 -178 89 -218 101 -246 73 -10 -10 -19 -26 -19 -34 0 -27 27
-69 59 -93 40 -29 39 -45 -3 -77 -19 -14 -37 -33 -40 -41 -8 -22 30 -54 64
-54 43 0 86 -30 128 -90 l36 -52 -21 -18 c-12 -9 -44 -20 -71 -24 -85 -11
-117 -65 -65 -106 25 -19 35 -21 128 -14 93 6 102 5 128 -16 39 -31 98 -37
148 -15 34 16 42 17 49 5 6 -9 4 -20 -6 -31 -7 -8 -14 -25 -14 -36 0 -36 25
-46 90 -40 l60 7 26 -41 26 -41 51 6 c29 4 62 13 73 19 12 7 35 20 53 30 30
17 31 17 51 -3 30 -30 24 -81 -12 -98 -37 -17 -312 -32 -397 -21 -45 5 -99 23
-163 52 -115 54 -165 71 -197 69 -37 -3 -52 -21 -49 -61 3 -35 2 -36 -30 -33
-42 5 -135 41 -219 87 -136 75 -157 85 -180 85 -30 0 -66 -36 -58 -59 7 -23
-2 -48 -22 -55 -8 -4 -69 -11 -136 -17 -66 -5 -129 -15 -139 -20 -25 -14 -20
-47 12 -70 40 -30 173 -59 267 -59 93 0 100 -7 53 -50 -62 -58 -24 -114 63
-93 23 6 56 17 73 24 17 7 38 10 46 6 9 -3 35 -35 59 -71 49 -74 63 -79 128
-46 44 24 102 35 127 26 15 -6 15 -8 -1 -32 -35 -54 13 -100 79 -74 39 14 71
13 86 -5 18 -22 64 -18 86 6 26 29 68 49 102 49 16 0 47 6 68 13 22 8 72 17
113 21 41 3 105 17 143 30 37 13 68 22 68 19 0 -22 -181 -140 -304 -198 -219
-104 -211 -103 -362 -39 -124 52 -177 69 -198 61 -7 -3 -18 -23 -23 -44 -8
-36 -11 -38 -53 -41 -31 -3 -71 5 -127 24 -68 24 -84 26 -97 15 -9 -7 -16 -21
-16 -31 0 -43 -58 -52 -178 -29 -57 12 -67 11 -98 -6 -57 -30 -60 -95 -5 -95
38 0 46 -13 27 -42 -22 -34 -8 -47 59 -50 57 -3 59 -4 67 -35 8 -30 11 -32 61
-35 49 -3 53 -5 61 -35 12 -38 27 -46 62 -33 45 17 82 12 113 -17 43 -40 46
-87 6 -105 -22 -10 -30 -8 -58 13 -42 31 -148 39 -207 15 -22 -9 -52 -16 -65
-16 -37 0 -31 -24 15 -60 35 -27 40 -37 40 -71 0 -86 -35 -99 -115 -46 -63 41
-130 72 -175 81 -66 13 -132 91 -204 243 -9 17 -20 35 -26 38 -6 4 -8 10 -5
15 8 13 -16 27 -85 50 -35 12 -76 28 -92 36 -15 8 -40 14 -56 14 -15 0 -37 8
-48 18 -10 9 -31 23 -46 29 -15 7 -35 19 -45 28 -42 37 -114 85 -128 85 -8 0
-32 -9 -52 -20 -21 -11 -43 -20 -50 -20 -7 0 -13 -5 -13 -11 0 -5 -4 -8 -9 -4
-12 7 -181 -74 -181 -86 0 -5 -6 -9 -12 -9 -17 0 -168 -154 -168 -170 0 -7 -6
-10 -14 -7 -8 3 -20 -1 -27 -10 -7 -8 -23 -19 -36 -24 -13 -5 -23 -15 -23 -23
0 -13 -19 -26 -47 -32 -17 -3 -37 -25 -46 -47 -4 -10 -11 -16 -16 -12 -6 3
-18 -12 -27 -32 -20 -43 -31 -53 -51 -46 -7 3 -13 -1 -13 -10 0 -9 -13 -25
-30 -37 -17 -12 -30 -31 -30 -42 0 -14 -5 -18 -15 -14 -18 6 -19 2 -4 -26 15
-29 -5 -48 -22 -20 -7 11 -18 18 -26 15 -7 -3 -10 -10 -6 -16 3 -6 1 -7 -6 -3
-14 9 -43 -12 -35 -25 6 -10 -7 -12 -43 -9 -32 2 -29 -24 5 -37 l27 -11 -27
-1 c-37 -1 -45 -19 -11 -24 23 -3 21 -4 -9 -6 -34 -1 -38 -4 -39 -28 l0 -28
-10 24 c-5 14 -6 27 -1 30 5 3 11 16 14 28 5 20 4 21 -18 11 -13 -6 -24 -17
-24 -25 0 -8 -12 -13 -31 -13 -16 0 -28 -4 -24 -9 3 -5 -7 -11 -22 -13 -16 -2
-27 -8 -26 -15 2 -7 -3 -10 -11 -7 -13 5 -32 -24 -22 -34 12 -11 57 9 54 25
-2 9 3 18 11 21 9 3 12 0 8 -10 -3 -9 0 -21 6 -27 8 -8 8 -11 -1 -11 -7 0 -22
-10 -33 -21 -13 -13 -24 -17 -28 -11 -3 6 -15 10 -26 9 -15 -2 -19 3 -18 21 2
19 0 21 -15 13 -37 -21 -97 -80 -81 -81 8 0 20 5 27 12 9 9 15 9 24 0 16 -16
-36 -40 -54 -25 -7 6 -64 11 -125 12 -90 1 -125 -3 -173 -20 -64 -22 -80 -19
-80 12 0 23 -21 24 -62 3 -38 -19 -56 -7 -38 27 7 12 68 79 137 147 142 143
147 158 53 149 -32 -4 -65 -8 -72 -9 -14 -3 -15 18 -3 89 6 34 3 48 -15 77
-24 41 -35 43 -85 19 -37 -18 -49 -15 -40 9 8 20 55 43 126 63 31 8 67 24 80
35 24 20 24 20 5 35 -25 19 -62 19 -117 0 -46 -16 -75 -7 -51 17 29 29 1 98
-39 98 -8 0 -26 -14 -40 -32 -33 -39 -59 -33 -59 14 0 50 38 107 90 135 49 26
147 124 161 160 25 66 -31 68 -136 4 -89 -55 -99 -54 -92 7 23 176 16 321 -19
447 -19 65 -30 83 -44 69 -21 -21 -59 -303 -60 -441 0 -115 -11 -119 -70 -28
-43 66 -75 88 -91 64 -22 -34 34 -172 116 -287 35 -49 45 -72 45 -103 0 -21
-3 -39 -6 -39 -4 0 -34 24 -68 53 -79 69 -112 91 -131 83 -33 -12 -15 -50 53
-114 67 -63 69 -69 27 -86 -6 -2 0 -22 13 -45 30 -54 21 -66 -28 -41 -22 11
-53 20 -70 20 -25 0 -30 -4 -30 -24 0 -18 17 -40 60 -78 67 -59 75 -78 31 -78
-69 0 -106 -34 -81 -74 17 -26 50 -93 50 -101 0 -15 -44 -1 -90 30 -29 19 -56
32 -61 29 -5 -3 -9 -21 -9 -41 l0 -36 -46 6 c-40 4 -47 2 -51 -14 -7 -24 -29
-24 -81 1 -50 24 -112 27 -112 5 0 -20 76 -95 96 -95 11 0 14 -5 10 -16 -3 -9
-6 -18 -6 -20 0 -2 -9 -4 -20 -4 -11 0 -20 -5 -20 -10 0 -6 11 -8 25 -4 14 3
25 2 25 -3 0 -9 19 -19 105 -54 11 -4 31 -11 43 -14 23 -7 23 -7 4 -21 -11 -8
-27 -11 -36 -8 -11 4 -16 1 -16 -10 0 -9 -8 -16 -20 -16 -11 0 -20 7 -20 15 0
8 5 15 10 15 6 0 10 7 10 15 0 8 -7 15 -15 15 -8 0 -15 -8 -15 -18 0 -10 -5
-23 -11 -29 -9 -9 -8 -16 5 -28 19 -19 20 -37 5 -52 -14 -14 7 -28 24 -16 7 4
41 5 77 2 36 -3 56 -7 45 -8 -37 -5 -69 -11 -73 -16 -11 -10 10 -55 26 -56 9
0 4 -5 -12 -10 -20 -5 -34 -4 -43 3 -9 7 -13 7 -13 -1 0 -6 5 -11 11 -11 6 0
9 -6 6 -14 -3 -7 0 -19 6 -25 6 -6 8 -13 5 -16 -2 -3 -13 10 -23 29 -14 26
-29 37 -57 44 -21 6 -40 6 -43 2 -7 -11 6 -69 16 -76 5 -3 9 -11 9 -19 0 -10
-10 -8 -40 8 -22 12 -40 29 -40 37 0 13 -1 13 -10 0 -8 -13 -13 -13 -32 -1
-42 26 -148 10 -148 -22 0 -14 53 -57 70 -57 13 0 13 -6 -1 -32 -12 -22 -4
-68 12 -68 17 0 89 -62 83 -71 -3 -5 -14 -9 -24 -9 -10 0 -20 -4 -22 -8 -2 -5
-16 -15 -32 -23 -38 -18 -37 -29 5 -57 28 -20 44 -23 92 -20 46 4 57 2 52 -10
-3 -7 -5 -16 -5 -18 0 -2 -7 -4 -15 -4 -8 0 -15 -3 -15 -7 0 -5 29 -9 65 -10
36 -1 65 1 65 5 0 4 9 13 19 19 16 10 27 7 67 -18 l47 -31 -39 -22 c-25 -14
-38 -28 -36 -39 5 -27 -10 -20 -52 23 -50 51 -83 61 -107 31 l-18 -22 -38 21
c-64 34 -103 25 -103 -25 0 -34 41 -88 85 -113 19 -10 19 -12 -13 -44 -32 -34
-39 -61 -23 -87 7 -11 19 -12 52 -6 24 5 78 9 119 10 41 0 81 4 88 9 8 5 21 1
33 -10 14 -12 19 -14 17 -5 -2 7 3 16 10 18 11 4 12 1 3 -15 -6 -11 -11 -33
-11 -47 0 -24 -3 -26 -37 -23 -29 2 -42 -2 -55 -19 -10 -11 -18 -28 -18 -37 0
-9 -6 -16 -12 -17 -7 -1 -2 -4 12 -9 22 -6 23 -8 7 -15 -27 -11 -66 19 -61 47
4 19 3 19 -4 5 -7 -17 -10 -16 -35 8 -15 15 -25 30 -23 34 3 4 -11 5 -30 3
-20 -3 -38 -11 -41 -18 -10 -26 -21 -14 -55 56 -31 67 -35 71 -63 68 -18 -2
-31 -9 -31 -18 -1 -8 -2 -24 -3 -35 -1 -15 -8 -10 -29 23 -47 73 -87 67 -84
-13 2 -44 -10 -58 -34 -36 -5 4 -28 6 -52 3 -31 -3 -42 -8 -38 -18 3 -7 0 -16
-6 -20 -7 -4 -5 -10 6 -16 20 -11 21 -29 1 -22 -8 4 -15 1 -15 -5 0 -6 10 -11
23 -11 12 0 40 -11 61 -25 l39 -24 -36 -14 c-37 -16 -57 -42 -57 -76 0 -21 21
-27 80 -22 23 2 23 1 9 -16 -9 -10 -21 -32 -27 -50 -9 -28 -8 -33 9 -38 22 -7
61 3 70 18 4 5 10 0 14 -12 11 -36 65 -24 111 26 13 14 28 22 34 18 6 -4 16
-2 23 3 17 13 66 21 73 11 2 -4 -12 -11 -33 -15 -39 -7 -93 -48 -93 -71 0 -7
-8 -17 -19 -22 -16 -9 -40 -11 -153 -12 -10 0 -20 -4 -23 -10 -4 -5 -15 -9
-26 -9 -16 0 -20 -6 -17 -27 2 -21 9 -29 28 -31 57 -6 75 -13 59 -22 -9 -6 -1
-7 24 -3 20 3 37 2 37 -3 0 -9 -64 -54 -76 -54 -3 0 -20 -10 -37 -22 -22 -16
-32 -19 -35 -9 -3 8 -9 4 -16 -11 -9 -18 -21 -24 -59 -26 -26 -2 -47 -7 -47
-11 0 -15 -77 -30 -89 -18 -8 8 -11 6 -11 -6 0 -9 -3 -17 -7 -18 -50 -5 -153
-33 -153 -41 0 -4 -12 -8 -26 -8 -14 0 -33 -4 -42 -9 -9 -5 -34 -12 -55 -15
-21 -3 -47 -11 -57 -16 -10 -6 -29 -10 -41 -10 -12 0 -28 -8 -35 -18 -10 -12
-13 -13 -14 -3 0 9 -13 4 -37 -15 -21 -15 -39 -32 -41 -36 -2 -4 -9 -8 -16 -8
-6 0 -19 -8 -28 -18 -24 -24 -38 -35 -78 -58 -19 -10 -39 -25 -43 -31 -4 -7
-15 -13 -23 -13 -8 0 -24 -11 -36 -25 -12 -14 -27 -25 -34 -25 -6 0 -14 -7
-18 -15 -3 -8 -12 -15 -21 -15 -16 0 -38 -17 -85 -62 -16 -16 -33 -28 -38 -28
-5 0 -23 -13 -40 -30 -18 -16 -36 -30 -42 -30 -5 0 -10 -4 -10 -10 0 -5 -7
-10 -15 -10 -7 0 -18 -6 -22 -12 -9 -14 -37 -33 -70 -47 -11 -6 -24 -15 -28
-20 -3 -6 -30 -26 -58 -45 -29 -18 -61 -43 -71 -55 -11 -11 -25 -21 -33 -21
-7 0 -13 -3 -13 -8 0 -4 -9 -13 -20 -20 -17 -10 -33 -10 -80 0 -33 6 -60 15
-60 19 0 4 -15 7 -32 7 -18 0 -91 11 -163 25 -71 14 -158 29 -193 32 -34 4
-65 11 -68 16 -6 11 -84 12 -84 2 0 -5 -18 -17 -40 -27 -22 -11 -40 -23 -40
-28 0 -4 -8 -8 -18 -8 -11 0 -29 -9 -42 -20 -12 -11 -26 -18 -30 -15 -3 2 -22
-8 -41 -24 -19 -15 -50 -33 -69 -41 -19 -7 -44 -21 -55 -30 -11 -9 -36 -23
-55 -30 -19 -7 -41 -18 -48 -23 -14 -11 -57 -35 -120 -67 -32 -17 -51 -21 -75
-15 -17 4 -68 11 -112 16 -44 5 -93 10 -110 13 -16 2 -52 6 -80 10 -27 3 -84
10 -125 16 -41 5 -142 14 -225 20 -82 5 -179 14 -215 19 -66 10 -191 25 -310
36 -58 6 -63 5 -46 -8 19 -14 19 -15 -2 -21 -12 -4 -38 -2 -58 4 -43 14 -52 8
-34 -25 15 -28 38 -33 46 -10 11 29 32 16 32 -19 0 -25 -5 -36 -19 -39 -10 -3
-20 0 -23 7 -3 6 -4 1 -2 -11 1 -12 5 -26 9 -29 14 -14 7 -44 -13 -56 -11 -7
-20 -20 -20 -29 0 -20 -35 -31 -70 -22 -25 6 -25 6 -6 -15 14 -17 22 -19 32
-11 8 6 21 8 30 5 16 -6 16 -8 0 -24 -9 -10 -16 -24 -16 -30 0 -6 -7 -9 -15
-6 -20 8 -19 -6 3 -22 15 -12 14 -13 -12 -14 -28 0 -28 -1 -22 -40 5 -31 3
-40 -8 -40 -8 0 -16 -6 -19 -12 -4 -10 -7 -10 -18 0 -7 6 -20 12 -29 12 -9 0
-11 -3 -5 -8 6 -4 17 -20 25 -36 12 -23 12 -30 3 -33 -8 -3 -13 -21 -13 -44 0
-32 -3 -39 -20 -39 -13 0 -24 -10 -30 -26 -6 -14 -19 -28 -30 -31 -14 -4 -20
-14 -20 -34 0 -17 -8 -34 -20 -42 -12 -8 -20 -18 -18 -23 6 -19 -24 -73 -38
-67 -9 3 -14 -2 -14 -14 0 -40 -44 -58 -55 -23 -6 20 -35 28 -35 10 0 -5 -7
-10 -15 -10 -8 0 -15 -9 -15 -20 0 -27 -25 -36 -57 -21 -24 11 -43 8 -30 -5
12 -12 87 -17 87 -5 0 6 7 11 15 11 8 0 15 -9 15 -20 0 -11 -4 -20 -10 -20
-13 0 -13 -33 0 -46 8 -8 5 -18 -9 -35 l-20 -24 -1 23 c0 12 -4 22 -10 22 -5
0 -10 -16 -10 -36 0 -44 -23 -72 -45 -54 -13 11 -15 7 -16 -26 -1 -22 -1 -42
0 -46 0 -4 -5 -5 -13 -2 -8 3 -18 -7 -26 -26 -7 -17 -18 -29 -24 -27 -12 4
-36 -17 -36 -32 0 -5 -12 -16 -27 -23 -16 -8 -27 -20 -26 -28 1 -8 -14 -23
-33 -33 -41 -20 -54 -21 -54 -4 0 7 -10 17 -22 22 -16 7 -22 18 -21 33 2 16
-2 22 -18 22 -18 0 -19 -2 -9 -15 10 -12 10 -18 1 -29 -10 -12 -7 -15 15 -18
21 -2 30 -11 40 -40 l13 -38 -40 0 c-35 0 -39 -3 -39 -24 0 -14 5 -28 10 -31
17 -10 11 -25 -10 -25 -11 0 -20 -3 -20 -7 0 -5 -7 -17 -15 -27 -11 -15 -17
-16 -29 -7 -11 9 -15 7 -20 -14 -3 -13 -19 -32 -34 -42 -15 -9 -38 -29 -52
-43 -14 -15 -31 -25 -38 -22 -15 5 -16 34 0 50 9 9 7 12 -10 12 -13 0 -22 -6
-22 -15 0 -8 -4 -15 -10 -15 -5 0 -10 -6 -10 -14 0 -8 -7 -16 -15 -20 -18 -6
-20 -33 -4 -38 7 -2 1 -16 -15 -32 -14 -16 -26 -25 -26 -21 0 4 -9 0 -20 -10
-22 -20 -55 -13 -46 10 3 10 -1 15 -12 15 -14 0 -17 -8 -17 -42 1 -39 -2 -42
-42 -60 -23 -10 -50 -32 -60 -48 -10 -17 -22 -28 -28 -26 -5 2 -24 -2 -42 -10
-17 -7 -41 -10 -52 -7 -17 4 -21 1 -21 -19 0 -16 -10 -29 -29 -41 -36 -21 -51
-22 -51 -2 0 8 7 15 15 15 16 0 20 12 8 23 -12 12 -41 -23 -36 -44 4 -15 0
-19 -21 -19 -19 0 -26 -5 -26 -20 0 -17 -7 -13 -42 23 l-43 44 4 -44 c2 -36 0
-43 -15 -44 -17 0 -17 -1 1 -8 19 -8 19 -8 -4 -16 -15 -4 -26 -3 -31 5 -4 7
-16 10 -26 8 -18 -5 -18 -5 1 -13 11 -5 22 -11 25 -15 3 -4 53 -35 112 -70 89
-53 112 -71 138 -113 50 -81 49 -83 -70 -148 -58 -32 -104 -62 -103 -68 2 -5
41 -71 88 -147 l85 -137 117 -84 c65 -46 121 -89 124 -96 19 -33 99 -261 99
-280 0 -33 -80 -421 -89 -430 -10 -10 -28 12 -33 41 -6 40 -22 26 -44 -40 -23
-65 -44 -81 -54 -39 -6 28 -28 40 -34 19 -3 -7 -15 -42 -27 -77 -21 -58 -24
-62 -36 -45 -12 16 -15 17 -23 4 -5 -8 -10 -18 -10 -22 0 -19 -29 -6 -32 14
-6 41 -24 28 -42 -31 -21 -71 -41 -102 -54 -83 -5 7 -16 10 -25 6 -11 -4 -17
-1 -17 9 0 37 -20 23 -35 -25 -25 -77 -35 -86 -52 -47 -15 37 -24 32 -43 -29
-15 -47 -18 -49 -35 -25 -16 22 -29 12 -45 -37 -16 -48 -29 -59 -42 -36 -12
22 -28 20 -28 -3 0 -10 -7 -24 -15 -31 -12 -10 -16 -9 -20 4 -16 52 -16 52
-32 14 -18 -46 -29 -48 -37 -8 -5 27 -8 30 -25 20 -27 -14 -28 -14 -34 18 -3
15 -11 40 -17 57 -13 35 -21 26 -46 -52 -18 -57 -29 -65 -40 -31 l-7 22 -17
-22 c-22 -27 -28 -28 -32 -2 -6 39 -27 27 -42 -24 -6 -17 -8 -18 -24 -2 -26
22 -29 21 -42 -19 -14 -43 -28 -45 -42 -4 -12 35 -21 30 -38 -23 -12 -39 -25
-48 -33 -25 -3 6 -10 -1 -17 -18 -11 -29 -12 -29 -26 -11 -8 11 -14 28 -14 38
0 22 -18 24 -26 3 -8 -20 -34 -19 -34 1 0 31 -25 6 -46 -47 -26 -63 -48 -75
-58 -28 -5 27 -8 30 -21 19 -8 -7 -15 -19 -15 -27 0 -8 -7 -28 -16 -46 l-17
-32 -15 33 c-16 32 -32 43 -32 20 0 -7 -7 -32 -16 -55 -18 -47 -44 -58 -44
-18 0 14 -4 25 -8 25 -10 0 -32 -45 -32 -65 0 -23 -28 -18 -36 7 l-6 21 -19
-24 c-16 -21 -19 -21 -19 -6 0 29 -24 14 -35 -21 -12 -41 -23 -40 -41 3 -18
43 -29 44 -43 5 -13 -39 -26 -38 -41 3 l-12 32 -14 -32 c-19 -44 -31 -41 -45
7 -11 36 -29 55 -29 30 0 -5 -7 -10 -15 -10 -9 0 -18 -7 -21 -15 -10 -25 -20
-17 -34 28 -20 62 -25 63 -46 6 -10 -29 -24 -54 -30 -56 -6 -2 -17 17 -24 42
-11 40 -30 62 -30 35 0 -19 -18 -10 -24 13 -5 18 -8 20 -16 7 -5 -8 -17 -41
-26 -73 -19 -64 -31 -78 -49 -54 -16 23 -23 21 -27 -5 -6 -47 -31 -23 -55 55
-13 42 -28 77 -32 77 -8 0 -51 -108 -51 -129 0 -6 -2 -11 -5 -11 -11 0 -75 67
-75 79 0 22 -31 72 -40 66 -6 -4 -13 1 -16 9 -9 23 -22 20 -26 -6 -5 -34 -30
-28 -40 9 -5 18 -13 35 -19 39 -14 8 -36 -22 -50 -69 -7 -20 -16 -37 -21 -37
-4 0 -8 1 -8 3 0 1 -9 27 -20 57 -11 30 -20 63 -20 73 0 41 -25 6 -53 -74 -16
-46 -31 -86 -33 -88 -2 -2 -11 2 -20 10 -12 10 -18 10 -21 3 -2 -6 -10 -20
-18 -30 -13 -18 -15 -15 -26 29 -7 26 -17 47 -21 47 -4 0 -14 -20 -20 -45 -7
-25 -17 -44 -23 -42 -5 2 -19 31 -31 65 -11 34 -23 64 -26 67 -3 3 -19 -14
-34 -39 -34 -53 -49 -57 -57 -16 -8 39 -24 38 -35 -2 -13 -50 -28 -44 -47 19
-23 73 -31 82 -49 57 -18 -24 -19 -22 -42 50 -11 33 -23 61 -29 63 -5 1 -23
-38 -40 -89 -16 -50 -35 -93 -41 -95 -6 -2 -15 13 -20 34 -9 37 -34 58 -34 29
0 -21 -21 -66 -31 -66 -5 0 -11 11 -15 25 -7 30 -24 33 -31 5 -9 -35 -22 -22
-40 40 -9 33 -21 60 -27 60 -7 0 -19 -24 -27 -52 -9 -29 -22 -53 -29 -53 -7 0
-19 21 -27 47 -7 27 -17 48 -22 48 -4 0 -18 -31 -31 -70 -24 -71 -33 -83 -44
-55 -8 21 -24 19 -31 -6 -10 -29 -28 -18 -40 25 -13 46 -27 50 -40 11 -16 -47
-25 -58 -39 -46 -16 13 -26 4 -26 -22 0 -38 -25 -9 -46 52 -11 34 -25 62 -30
63 -5 0 -18 -28 -30 -61 -11 -34 -25 -66 -32 -73 -17 -17 -42 -1 -42 28 0 44
-24 21 -46 -45 -11 -34 -25 -63 -30 -64 -5 -1 -14 12 -19 30 -14 43 -24 51
-36 30 -16 -28 -26 -20 -39 31 -16 59 -28 73 -41 50 -16 -29 -26 -21 -40 32
-7 28 -16 50 -20 50 -7 0 -9 -6 -49 -115 -38 -104 -47 -111 -65 -49 -13 48
-27 52 -42 14 -14 -37 -31 -39 -35 -3 -2 21 -8 28 -26 28 -20 0 -29 12 -55 73
-17 39 -37 72 -44 72 -7 0 -13 -4 -13 -10 0 -19 -51 -120 -61 -120 -5 0 -14
-12 -19 -26 -9 -22 -13 -24 -25 -14 -8 7 -15 19 -15 26 0 27 -21 13 -37 -23
-13 -33 -16 -36 -28 -20 -18 25 -22 22 -40 -33 -19 -56 -30 -63 -39 -24 -6 21
-10 24 -21 14 -18 -15 -35 -5 -35 20 0 28 -17 34 -30 10 -12 -23 -30 -27 -30
-6 0 7 -7 19 -15 26 -12 10 -15 7 -21 -15 -9 -37 -27 -26 -45 30 -8 27 -20 50
-26 52 -5 2 -16 -17 -23 -42 -7 -25 -18 -44 -24 -42 -5 2 -19 31 -30 65 -11
34 -23 62 -26 62 -4 0 -11 -14 -16 -32 -9 -30 -34 -52 -34 -29 0 6 -17 49 -39
94 -21 46 -44 100 -52 120 -7 21 -17 36 -23 34 -5 -2 -23 -35 -40 -75 -25 -57
-35 -70 -49 -66 -12 4 -17 0 -17 -15 0 -12 -4 -21 -8 -21 -14 0 -32 23 -32 42
0 28 -14 21 -27 -13 -15 -39 -27 -32 -43 26 -7 25 -16 45 -20 45 -4 0 -16 -28
-27 -62 -10 -34 -24 -63 -30 -65 -6 -2 -16 11 -23 29 -8 18 -26 61 -42 96 -15
34 -28 67 -28 73 0 30 -28 -6 -54 -69 -16 -40 -34 -72 -38 -72 -5 0 -13 11
-18 25 -10 28 -30 34 -30 10 0 -9 -7 -18 -16 -22 -9 -3 -19 -15 -24 -27 -7
-20 -9 -19 -26 11 -22 38 -29 40 -44 13 -13 -25 -30 -26 -30 -2 -1 16 -1 16
-14 0 -19 -25 -21 -23 -35 22 -6 22 -16 40 -20 40 -5 0 -14 -20 -20 -45 -11
-45 -27 -58 -37 -31 -3 8 -13 12 -25 9 -15 -4 -20 1 -25 26 -5 25 -11 30 -25
26 -14 -5 -20 2 -30 37 -16 57 -26 66 -43 42 -8 -10 -16 -17 -19 -14 -2 3 -24
67 -48 143 -24 75 -47 137 -50 137 -7 0 -15 -18 -59 -145 -48 -138 -48 -139
-64 -125 -11 9 -16 7 -21 -9 -13 -41 -26 -23 -55 72 -13 43 -25 47 -34 12 -3
-13 -11 -36 -16 -51 -10 -26 -11 -26 -25 -8 -8 10 -15 29 -15 41 0 28 -17 38
-36 22 -8 -6 -16 -10 -17 -8 -8 12 -27 78 -27 92 0 9 -6 17 -14 17 -9 0 -22
-24 -33 -59 -10 -33 -22 -61 -28 -63 -5 -1 -24 40 -41 92 -31 91 -31 99 -23
193 8 95 10 100 48 146 23 27 55 86 76 139 l37 92 -13 87 c-8 54 -13 167 -12
292 l2 204 -39 116 c-21 64 -56 155 -79 203 -27 59 -41 101 -41 129 0 37 5 47
46 83 25 22 52 54 60 71 7 16 48 66 89 110 69 73 89 105 67 105 -5 0 -17 -9
-27 -20 -9 -10 -49 -31 -89 -45 -39 -15 -81 -31 -93 -37 -13 -6 -26 -9 -29 -5
-8 8 86 99 160 156 l53 41 719 0 719 0 -40 38 c-74 68 -179 152 -191 152 -7 0
-14 4 -16 9 -1 5 -33 27 -70 49 l-67 41 -23 -19 c-13 -11 -50 -40 -83 -65 -33
-24 -64 -48 -70 -52 -84 -67 -125 -89 -215 -113 -25 -7 -55 -16 -67 -21 -12
-4 -47 -4 -80 1 -32 6 -94 10 -138 10 -46 0 -114 9 -159 20 -43 11 -87 20 -97
20 -44 0 -30 24 53 93 57 48 98 121 103 188 3 28 8 56 12 62 4 7 8 17 8 22 2
35 93 172 136 205 4 3 14 22 23 44 32 76 12 176 -35 176 -17 0 -18 -5 -13 -41
4 -22 2 -50 -3 -62 -6 -12 -16 -35 -22 -50 -10 -27 -36 -45 -47 -34 -3 3 2 26
10 51 24 69 20 114 -15 171 -16 28 -32 58 -36 68 -3 9 -11 17 -19 17 -19 0
-28 -44 -15 -68 17 -32 14 -118 -5 -136 -20 -21 -25 -20 -54 7 -14 12 -45 34
-70 49 -25 14 -60 44 -78 67 -49 61 -84 47 -48 -19 12 -21 12 -26 -3 -37 -14
-11 -9 -19 47 -73 34 -33 62 -64 62 -70 0 -5 11 -34 25 -63 22 -49 24 -63 18
-143 -3 -49 -10 -94 -15 -101 -5 -6 -8 -18 -6 -27 3 -17 -92 -196 -105 -196
-5 0 -8 48 -7 108 3 118 -7 165 -35 171 -16 3 -18 -4 -13 -86 6 -102 1 -153
-16 -153 -13 0 -126 108 -126 121 0 5 -5 9 -11 9 -20 0 -119 65 -119 78 0 7
-5 10 -11 7 -5 -4 -18 0 -28 9 -10 9 -36 19 -57 22 -22 3 -85 17 -141 30 -57
14 -125 26 -152 27 -27 2 -56 8 -64 15 -8 7 -25 12 -38 12 -21 0 -166 24 -179
30 -3 1 -9 2 -14 1 -4 -1 -17 1 -27 4 -36 12 -22 52 46 130 36 41 65 80 65 85
0 6 -11 8 -26 4 -26 -7 -27 -5 -19 22 4 16 11 48 15 72 6 36 4 42 -10 42 -9 0
-31 -21 -48 -47 -83 -128 -106 -160 -130 -185 -30 -32 -44 -35 -63 -12 -16 20
-14 206 3 237 13 26 -5 45 -26 28 -8 -7 -19 -10 -25 -7 -5 3 -7 -2 -4 -13 2
-10 -10 -47 -28 -82 -38 -76 -41 -139 -10 -200 27 -51 27 -69 -1 -68 -13 0
-36 -2 -53 -5 -16 -4 -51 -9 -76 -12 -66 -8 -72 -23 -94 -229 -3 -27 -10 -63
-15 -79 -6 -16 -10 -45 -10 -65 0 -20 -4 -52 -10 -71 -5 -19 -11 -59 -12 -90
-1 -30 -6 -60 -10 -67 -5 -7 -8 -22 -6 -35 4 -28 -1 -28 283 9 110 14 220 27
245 29 25 2 59 5 75 9 35 6 55 -6 155 -97 65 -59 74 -80 23 -56 -15 8 -48 21
-72 28 -24 8 -60 31 -81 52 -38 39 -54 46 -65 28 -10 -16 163 -268 196 -285
32 -17 79 -75 79 -98 0 -9 5 -27 11 -40 9 -19 7 -32 -8 -63 -11 -21 -30 -77
-42 -124 -33 -123 -38 -132 -79 -160 -37 -25 -38 -25 -302 -28 -229 -2 -276
-5 -350 -23 -103 -26 -112 -30 -240 -120 -96 -68 -103 -75 -134 -143 -32 -66
-34 -76 -29 -148 5 -72 4 -78 -13 -78 -41 0 -61 29 -94 130 -18 55 -36 100
-40 100 -5 0 -18 -28 -29 -63 -12 -34 -26 -69 -31 -77 -19 -30 -55 29 -95 153
-20 66 -41 115 -45 110 -4 -4 -15 -32 -25 -60 -9 -29 -20 -53 -25 -53 -5 0
-23 46 -40 102 -18 57 -36 107 -40 111 -7 8 -50 -97 -50 -122 0 -21 -25 -11
-51 22 -15 18 -40 60 -57 93 -17 33 -37 66 -46 73 -11 9 -16 30 -16 61 0 59
30 95 92 110 98 25 124 31 151 37 15 3 27 9 27 14 0 17 -35 89 -43 89 -8 0
-25 12 -62 46 -12 11 -29 21 -36 22 -24 2 -120 39 -132 51 -6 6 -17 11 -25 11
-8 0 -27 9 -44 21 -16 12 -32 18 -35 15 -3 -3 -25 10 -49 29 -23 19 -47 35
-52 35 -6 0 -12 3 -14 8 -9 22 -88 72 -105 66 -13 -4 -15 -3 -4 4 23 17 -124
112 -234 152 -11 4 -54 24 -96 44 -42 20 -80 36 -83 36 -3 0 -54 23 -114 51
-59 28 -117 55 -129 60 -31 11 -37 45 -23 126 7 37 16 95 20 128 4 33 16 107
25 165 9 58 23 148 30 200 38 258 39 264 77 275 25 7 40 13 110 44 26 12 53
21 58 21 6 0 30 9 52 20 23 11 48 20 55 20 7 0 21 4 31 9 43 23 113 51 128 51
29 0 8 23 -47 53 -30 16 -67 40 -83 54 -16 13 -46 33 -68 44 -21 11 -41 26
-45 34 -3 8 -10 15 -17 15 -6 1 -49 28 -96 60 -86 60 -124 86 -215 147 -27 18
-68 46 -90 62 -39 28 -76 48 -275 153 -52 28 -99 54 -104 59 -6 5 -31 9 -57 9
-26 0 -81 4 -121 10 -40 5 -107 11 -148 14 -41 2 -149 10 -240 17 -160 12
-168 12 -257 -10 -99 -24 -140 -40 -190 -77 -17 -13 -35 -24 -38 -24 -4 0 -24
-13 -44 -29 -20 -16 -69 -45 -108 -65 -40 -21 -75 -41 -78 -46 -3 -5 -18 -15
-33 -23 -15 -8 -49 -26 -75 -40 -27 -15 -52 -26 -55 -25 -7 1 -24 -4 -70 -23
-13 -5 -33 -9 -45 -9 -13 0 -47 -9 -77 -19 -60 -21 -173 -28 -282 -17 -40 4
-69 2 -73 -3 -3 -6 -12 -8 -19 -5 -8 3 -17 1 -21 -5 -3 -6 -15 -11 -25 -11
-11 0 -34 -8 -52 -19 -19 -10 -47 -21 -63 -24 -46 -8 -148 -46 -155 -57 -3 -6
-19 -12 -36 -13 -16 -2 -49 -14 -73 -25 -25 -12 -50 -22 -55 -22 -6 0 -31 -10
-56 -22 -25 -12 -54 -25 -65 -29 -11 -4 -29 -11 -40 -15 -11 -4 -23 -6 -27 -6
-5 1 -8 -7 -8 -17 0 -40 -18 -29 -34 20 -9 28 -16 57 -16 63 0 10 -34 46 -44
46 -2 0 -7 -23 -10 -52 -9 -64 -24 -97 -37 -77 -5 8 -9 24 -9 37 0 15 -6 22
-18 22 -13 0 -23 -13 -32 -42 -8 -24 -17 -47 -20 -53 -4 -5 -10 -22 -14 -37
-3 -16 -11 -28 -16 -28 -6 0 -9 3 -8 8 2 9 -13 64 -21 77 -4 6 -13 27 -20 48
-10 30 -10 41 -1 52 10 12 10 15 1 15 -8 0 -10 8 -6 19 4 13 -3 29 -20 47 -28
30 -35 70 -10 61 8 -4 17 -1 21 5 5 7 -2 9 -20 6 -14 -3 -26 -1 -26 5 0 14
-31 -14 -40 -38 -7 -17 -9 -17 -9 -2 -1 17 -12 20 -67 17 -29 -1 -31 1 -27 24
4 21 2 25 -10 20 -11 -4 -21 5 -32 30 -20 41 -53 50 -53 14 0 -43 -9 -63 -29
-66 -15 -2 -22 6 -30 33 -7 21 -7 35 -1 35 5 0 6 4 3 10 -10 16 -72 12 -79 -5
-6 -17 -36 -21 -36 -5 0 6 7 10 15 10 21 0 19 13 -5 35 -11 10 -26 15 -36 11
-10 -4 -21 -1 -26 6 -5 9 -8 7 -8 -7 0 -20 -76 -73 -87 -61 -3 3 -11 -1 -17
-8 -6 -8 -26 -17 -45 -21 -32 -7 -34 -6 -29 18 4 18 1 24 -9 20 -8 -3 -13 2
-13 16 0 12 -1 24 -2 29 -1 4 7 9 17 11 13 2 16 -1 12 -13 -4 -9 -2 -16 3 -16
15 0 23 21 12 32 -5 5 -8 18 -5 28 4 17 19 19 141 22 76 2 139 -1 141 -6 2 -5
10 9 17 30 16 45 18 66 5 45 -8 -12 -12 -12 -25 -2 -23 19 -20 31 7 31 37 0
68 27 61 55 -5 20 0 27 38 46 23 12 71 41 106 65 35 24 68 44 75 45 29 2 -62
28 -100 28 -42 1 -64 14 -41 25 7 3 0 2 -16 -1 -20 -4 -27 -3 -22 6 5 8 -9 11
-48 11 -45 0 -54 3 -50 15 4 10 15 13 33 10 22 -4 21 -3 -6 7 -17 7 -35 16
-39 20 -11 12 -72 10 -79 -2 -9 -14 -42 -12 -49 3 -3 6 -3 2 -1 -9 5 -19 0
-23 -32 -28 -86 -15 -133 -18 -133 -7 0 6 9 11 21 11 13 0 19 5 15 13 -2 6
-10 29 -17 50 -14 42 -35 47 -89 21 -17 -9 -43 -17 -56 -17 -14 0 -24 -5 -24
-13 0 -10 -13 -14 -40 -14 -29 0 -40 4 -40 15 0 9 -6 12 -15 9 -8 -4 -12 -10
-9 -15 9 -15 -105 -10 -136 6 -17 9 -32 15 -35 15 -3 0 -13 0 -22 1 -17 0 -17
1 0 8 10 4 18 10 18 14 -1 4 1 7 4 7 3 0 12 0 20 0 8 0 15 -8 16 -17 0 -14 3
-13 11 5 13 26 26 28 35 6 3 -8 12 -13 19 -10 8 3 14 0 14 -6 0 -6 2 -9 5 -6
3 3 0 17 -6 31 -13 28 -70 49 -77 28 -2 -6 -15 -11 -29 -11 -18 0 -24 4 -20
14 4 11 -1 14 -20 13 -21 -2 -26 -8 -28 -32 -2 -17 -1 -24 2 -17 2 6 9 12 14
12 4 0 6 -7 3 -15 -4 -8 -17 -15 -29 -15 -27 0 -42 16 -23 23 7 2 9 8 5 13 -4
4 -16 3 -26 -3 -13 -8 -27 -8 -54 0 -34 11 -50 27 -27 27 6 0 10 5 10 10 0 6
-7 10 -16 10 -8 0 -13 4 -9 10 9 14 57 -11 51 -26 -9 -22 7 -23 48 -3 22 10
47 19 55 19 13 1 13 2 -1 11 -30 17 -20 29 15 17 17 -6 37 -15 42 -19 6 -4 30
-9 54 -10 34 -3 46 -8 54 -26 11 -25 22 -29 32 -13 3 6 -1 13 -9 16 -22 8 -20
19 4 21 11 1 20 -4 20 -10 0 -8 19 -13 52 -15 43 -1 55 3 76 23 42 42 71 30
32 -13 -25 -27 -8 -30 18 -4 15 15 21 16 28 6 5 -6 20 -15 34 -19 22 -6 21 -3
-12 29 -31 28 -38 42 -38 72 0 31 3 35 18 28 9 -4 36 -9 60 -12 41 -4 42 -3
42 26 0 17 -6 33 -12 36 -7 3 1 4 17 1 17 -3 36 -7 44 -8 8 -1 16 4 19 12 3
10 -2 12 -21 7 -20 -5 -27 -2 -32 13 -3 10 -14 26 -25 36 -44 40 -13 47 42 10
47 -32 138 -37 138 -7 0 10 -5 23 -11 29 -15 15 -3 33 21 33 26 0 121 43 143
64 9 10 15 22 12 27 -4 5 -51 9 -106 9 -59 0 -99 4 -99 10 0 6 5 10 10 10 6 0
10 9 10 21 0 25 -19 21 -108 -27 -74 -40 -96 -43 -87 -14 5 16 2 20 -19 20
-31 0 -32 4 -6 37 46 58 16 57 -80 -3 -119 -74 -155 -87 -216 -80 -49 6 -99
17 -197 46 -108 32 -227 104 -227 137 0 24 67 9 99 -21 16 -15 41 -26 61 -28
32 -3 35 0 38 25 l3 28 31 -26 c36 -31 91 -55 124 -55 26 0 41 33 30 68 -16
50 30 69 77 32 39 -31 108 -60 145 -60 51 0 42 30 -25 81 -55 41 -60 69 -5 33
41 -28 92 -46 145 -51 51 -5 61 6 26 31 -30 20 -17 33 47 47 62 14 75 26 49
46 -17 11 -13 13 32 13 63 0 110 16 124 42 19 36 -10 51 -107 56 -74 4 -87 7
-91 23 -10 39 -65 34 -197 -15 -74 -27 -86 -26 -86 6 0 11 -8 22 -20 25 -13 4
-20 14 -20 30 0 24 -2 24 -42 17 -70 -11 -73 -11 -76 19 -4 32 -23 35 -60 8
-45 -31 -114 -63 -166 -77 -41 -11 -59 -11 -109 1 -32 7 -62 16 -65 19 -3 4 4
16 16 29 26 28 28 52 6 61 -9 4 -44 3 -78 0 -78 -8 -135 8 -173 47 -34 34 -80
156 -70 183 13 32 32 10 35 -39 2 -37 12 -61 38 -96 19 -26 41 -50 50 -53 26
-10 53 12 65 54 11 37 29 55 29 28 0 -6 11 -26 25 -44 29 -37 119 -74 138 -55
10 10 8 16 -21 73 -3 6 54 38 69 38 5 0 18 -17 31 -39 26 -46 103 -101 140
-101 23 0 29 6 38 39 12 46 42 62 69 37 21 -19 35 -20 98 -5 131 30 173 48
173 73 0 8 -26 26 -57 41 -32 15 -66 34 -75 42 -10 9 -50 22 -90 29 -124 21
-147 37 -113 74 39 43 -67 58 -149 21 -26 -13 -60 -23 -75 -24 -41 -3 -32 25
14 38 38 11 43 18 34 55 -3 10 8 16 37 20 48 7 94 34 94 55 0 9 -16 16 -45 19
-25 3 -66 9 -91 12 -83 10 -92 22 -51 70 l23 26 42 -21 c52 -27 60 -26 74 4
10 23 34 36 108 60 19 7 36 19 38 28 4 22 -47 47 -96 47 -62 0 -68 19 -19 66
23 22 57 49 75 59 54 32 38 50 -46 53 -42 2 -72 7 -72 13 0 6 18 31 40 56 23
26 40 56 40 69 0 40 -41 30 -108 -26 -33 -27 -66 -50 -73 -50 -7 0 -25 12 -40
26 -19 18 -33 24 -47 20 -24 -8 -84 -95 -101 -147 -15 -47 -95 -120 -194 -177
-50 -29 -77 -29 -78 1 -1 12 -3 54 -4 93 -1 40 -9 84 -19 102 -19 36 -19 45
-5 94 11 43 53 71 97 66 22 -2 26 -7 24 -26 -2 -13 2 -30 8 -37 10 -13 16 -13
39 0 15 7 33 21 41 30 11 13 24 15 67 9 37 -4 58 -2 68 6 14 12 12 17 -12 42
-41 43 -92 71 -137 78 -30 4 -42 10 -44 24 -4 18 0 18 64 10 100 -13 211 -11
225 3 10 10 3 17 -32 33 -24 11 -51 24 -59 29 -8 5 -23 12 -33 15 -25 8 -16
19 55 67 43 30 57 44 49 52 -12 12 -130 -21 -188 -54 -43 -24 -43 -24 -43 11
0 76 -93 -7 -123 -111 -6 -20 -85 -60 -93 -48 -8 13 15 118 33 153 8 15 48 64
89 108 113 121 125 148 66 148 -37 0 -88 -33 -107 -70 -12 -23 -22 -30 -38
-28 -20 3 -22 9 -25 73 -3 92 -7 108 -38 144 -38 46 -54 41 -54 -17 0 -95 -13
-262 -21 -262 -4 0 -40 27 -79 60 -81 67 -100 74 -100 32 0 -20 19 -49 71
-107 87 -98 96 -115 105 -197 7 -74 -7 -118 -32 -97 -8 6 -14 16 -14 22 0 6
-9 20 -19 31 -11 12 -24 48 -30 80 -20 106 -67 141 -97 71 -18 -43 -34 -44
-99 -5 -56 33 -83 37 -91 15 -11 -28 5 -59 61 -119 30 -33 55 -68 55 -78 0 -9
-13 -24 -30 -33 -31 -16 -39 -42 -18 -63 15 -15 74 -16 83 -2 3 6 17 10 31 10
17 0 24 -6 24 -19 0 -11 2 -25 5 -33 3 -7 -1 -22 -8 -33 -14 -18 -15 -18 -65
3 -68 29 -92 29 -92 -2 0 -16 15 -38 45 -64 48 -42 56 -62 26 -62 -10 0 -30
-11 -45 -25 -34 -31 -32 -32 -199 52 -70 35 -135 63 -145 61 -10 -2 -18 -14
-20 -29 -2 -21 7 -35 43 -67 48 -42 51 -62 11 -62 -13 0 -30 -8 -40 -18 -15
-18 -15 -20 3 -36 12 -11 27 -15 40 -11 22 7 81 -30 81 -51 0 -7 12 -22 26
-33 37 -29 25 -47 -35 -54 -63 -8 -91 -22 -91 -48 0 -28 59 -53 95 -39 42 16
90 12 118 -10 29 -23 74 -25 101 -5 22 17 76 20 76 6 0 -5 -13 -19 -30 -31
-16 -12 -30 -28 -30 -35 0 -21 44 -29 81 -16 50 17 62 15 55 -13 -9 -36 17
-53 58 -38 18 7 39 12 46 12 8 0 24 12 37 28 l23 27 19 -25 c24 -31 35 -70 23
-82 -17 -17 -143 -30 -255 -26 -108 3 -115 5 -198 45 -106 51 -156 63 -165 38
-5 -11 2 -25 20 -41 14 -14 26 -27 26 -30 0 -11 -85 9 -151 36 -38 16 -89 43
-114 60 -77 53 -153 50 -139 -5 8 -32 -13 -41 -111 -48 -96 -7 -117 -14 -113
-36 6 -31 90 -62 187 -68 50 -3 91 -9 91 -13 0 -3 -11 -17 -25 -30 -31 -29
-32 -46 -4 -61 30 -15 82 1 149 47 30 21 60 34 73 32 19 -3 15 -7 -21 -26 -52
-28 -63 -49 -35 -71 11 -9 23 -28 26 -43 9 -35 31 -41 62 -16 14 11 52 27 83
34 31 8 74 24 95 35 38 21 55 20 42 0 -3 -6 -25 -21 -48 -32 -55 -28 -77 -48
-77 -71 0 -29 28 -33 81 -10 l49 20 6 -24 c8 -33 23 -30 69 11 30 28 44 35 65
30 15 -3 39 1 56 10 16 8 49 15 74 15 73 1 162 48 181 98 10 26 27 29 36 6 21
-54 -116 -150 -347 -244 -86 -35 -98 -35 -195 5 -122 50 -152 57 -171 38 -8
-8 -12 -23 -9 -33 11 -34 -34 -33 -133 4 -50 18 -70 13 -78 -21 -7 -25 -7 -25
-93 -19 -101 7 -131 -3 -146 -51 -10 -31 -12 -31 -35 -18 -43 24 -64 33 -105
41 -31 7 -41 14 -43 32 -5 36 -42 47 -123 36 -69 -10 -97 -5 -86 14 11 16 -26
41 -59 40 -39 -1 -77 31 -64 52 17 27 10 49 -20 67 -30 17 -43 47 -16 37 44
-17 74 49 41 92 -21 28 -18 44 8 44 41 1 122 27 122 40 0 7 -24 21 -52 32 -96
35 -48 53 55 21 l54 -17 23 28 c22 28 25 29 88 22 74 -7 97 -2 97 25 0 24 -34
46 -82 53 -121 19 -109 12 -106 64 2 38 0 47 -15 50 -11 2 -31 -7 -45 -21 -41
-37 -122 -97 -133 -97 -6 0 -5 9 1 21 19 34 5 51 -34 44 -37 -7 -76 1 -76 16
0 5 10 9 23 9 75 1 91 38 27 63 -22 8 -40 20 -40 25 0 21 31 34 67 29 54 -9
68 7 41 45 -25 36 -18 43 56 53 27 4 63 13 81 21 37 15 66 45 49 51 -6 2 -20
11 -30 19 -21 16 -27 17 82 -2 18 -4 35 -1 38 5 15 24 -6 50 -59 71 -30 12
-55 28 -55 34 0 7 15 30 33 52 39 45 57 76 57 98 0 26 -28 18 -87 -24 -76 -54
-83 -53 -83 19 0 33 -4 63 -10 66 -17 11 -50 -15 -68 -53 -18 -38 -112 -110
-144 -111 -22 -1 -23 33 -3 69 26 46 19 82 -25 125 -22 21 -40 44 -40 49 0 6
12 34 27 63 28 52 28 53 10 83 -23 38 -19 43 68 100 40 26 90 48 132 59 58 13
69 20 71 39 2 13 15 28 28 34 47 21 24 46 -57 63 -39 7 -41 26 -8 75 34 50 34
74 0 78 -17 3 -35 -9 -68 -44 -36 -39 -47 -46 -61 -38 -29 19 -25 51 13 101
63 83 30 122 -48 55 -29 -25 -59 -41 -84 -45 -34 -6 -42 -12 -58 -46 -21 -49
-34 -54 -79 -36 -47 20 -76 19 -138 -5 -65 -24 -65 -24 -44 -1 14 16 80 62
198 139 78 51 57 87 -33 55 l-59 -22 -27 23 c-23 20 -31 22 -60 13 -77 -24
-55 18 88 163 72 74 119 129 117 139 -3 13 -17 16 -68 16 l-65 0 0 70 c0 39
-6 80 -13 92 -14 26 -50 38 -81 28 -24 -7 -28 7 -8 24 8 6 43 20 80 31 91 28
117 57 74 84 -11 7 -32 7 -65 0 -64 -13 -72 -9 -72 32 0 34 -28 74 -52 74 -6
0 -22 -10 -34 -21 -28 -26 -54 -19 -54 16 0 43 26 79 88 123 127 89 190 192
128 208 -18 4 -45 -5 -94 -32 -101 -55 -101 -55 -95 128 4 93 1 182 -6 228
-12 78 -37 141 -58 148 -31 9 -57 -103 -73 -322 -11 -163 -21 -177 -77 -116
-41 44 -67 49 -86 19 -19 -30 54 -201 113 -267 36 -40 52 -112 26 -112 -8 0
-41 23 -73 50 -66 59 -106 65 -111 19 -2 -20 9 -38 49 -77 48 -48 52 -53 41
-77 -6 -14 -9 -38 -6 -55 l6 -30 -53 3 c-52 2 -54 1 -57 -24 -2 -21 7 -36 42
-70 25 -23 46 -48 46 -54 0 -7 -20 -20 -44 -29 -24 -9 -47 -23 -50 -31 -3 -8
4 -34 14 -57 11 -24 20 -49 20 -55 0 -18 -33 -16 -75 4 -34 16 -36 16 -74 -5
-32 -18 -55 -22 -128 -22 -91 0 -133 14 -133 45 0 31 -48 28 -122 -9 -106 -51
-121 -53 -152 -19 -28 30 -42 65 -32 82 4 5 -3 15 -14 21 -24 13 -46 3 -153
-69 -137 -92 -200 -98 -412 -41 -187 49 -314 104 -380 161 -37 33 -42 48 -24
66 11 11 79 -1 89 -17 10 -16 82 -50 105 -50 14 0 34 9 45 20 27 27 40 25 99
-11 60 -38 139 -50 160 -26 7 9 14 35 16 59 7 99 35 108 140 44 59 -36 90 -48
135 -53 53 -5 58 -4 64 15 4 13 1 31 -9 45 -14 21 -14 26 0 37 12 10 24 9 62
-4 85 -29 123 -18 123 36 0 23 7 31 38 44 75 32 87 40 100 67 14 28 25 33 112
41 94 10 140 66 84 103 -20 13 -55 19 -125 23 -92 5 -98 7 -134 39 -35 31 -42
33 -88 28 -27 -4 -99 -23 -160 -44 l-110 -37 -66 72 -66 72 -51 -6 c-47 -6
-52 -5 -76 25 -36 43 -72 41 -145 -7 -115 -76 -203 -101 -309 -87 -69 8 -112
42 -94 74 5 11 10 33 10 49 0 28 26 62 47 62 12 0 28 34 39 85 8 33 13 41 36
43 21 2 37 -8 75 -45 63 -63 140 -113 173 -113 34 0 55 16 78 59 28 52 42 58
104 38 51 -16 56 -16 158 8 120 27 158 40 182 62 38 34 13 70 -75 112 -27 13
-51 29 -54 37 -8 21 -83 52 -143 59 -113 13 -160 45 -160 109 0 48 -71 75
-152 57 -53 -12 -70 -5 -66 28 2 20 15 33 60 56 73 38 94 77 57 106 -13 10
-55 23 -94 29 -116 19 -130 24 -133 47 -4 30 31 48 66 34 70 -26 91 -25 130
11 21 19 72 51 114 71 60 30 77 43 83 65 5 22 1 31 -24 52 -16 14 -50 31 -74
37 -25 7 -47 19 -50 27 -7 19 40 81 80 106 18 10 39 30 48 44 15 23 15 27 0
50 -10 14 -21 27 -26 27 -5 1 -13 2 -18 3 -5 0 -13 4 -17 9 -4 4 -20 7 -35 7
-41 0 -44 26 -9 80 36 56 38 93 8 114 -43 31 -76 20 -168 -54 -57 -46 -78 -54
-104 -37 -12 7 -41 19 -66 26 -83 24 -100 33 -100 51 0 10 -16 37 -36 61 -43
52 -38 59 58 78 46 9 68 19 81 37 25 34 15 56 -43 98 -28 20 -50 42 -50 49 0
7 18 31 40 52 50 49 53 83 10 109 -27 15 -35 16 -68 4 -20 -7 -44 -13 -52 -15
-8 -1 -33 -9 -55 -17 -52 -20 -74 -20 -121 0 -57 24 -100 8 -147 -55 -20 -28
-37 -54 -37 -59 0 -5 -11 -21 -24 -35 -13 -14 -26 -32 -28 -39 -3 -7 -8 2 -12
20 -8 32 8 92 24 92 4 0 12 11 18 25 12 27 35 54 131 157 100 106 114 138 89
192 -13 30 -67 49 -107 39 -14 -3 -43 -17 -63 -29 -20 -13 -47 -26 -61 -29
-30 -8 -37 11 -37 100 0 79 -45 157 -101 174 -48 14 -84 14 -97 -1z m292
-1080 c14 -6 33 -22 41 -35 20 -30 86 -32 132 -4 40 25 93 35 138 27 27 -5 35
-12 35 -29 0 -31 -83 -196 -117 -232 -33 -36 -121 -109 -143 -118 -8 -4 -28
-16 -45 -26 -69 -45 -95 -19 -95 92 0 44 -5 97 -11 116 -6 20 -14 48 -19 63
-12 40 6 120 33 140 27 21 21 20 51 6z m31862 -613 c19 -25 34 -35 55 -35 31
0 80 19 91 35 9 12 159 8 172 -5 10 -10 -85 -208 -119 -248 -23 -28 -212 -172
-225 -172 -4 0 -15 -3 -23 -6 -9 -3 -25 4 -36 15 -18 18 -21 33 -21 99 0 43
-7 102 -16 132 -24 85 -27 118 -14 153 30 74 92 89 136 32z m-32362 -794 c13
-21 -90 -83 -243 -145 -78 -31 -123 -33 -195 -6 -63 24 -88 47 -65 61 19 12
66 11 91 -2 22 -12 68 2 103 31 27 23 47 31 135 51 83 19 166 24 174 10z
m2373 -1030 c13 -17 46 -38 85 -54 75 -30 83 -49 34 -78 -38 -22 -48 -54 -18
-63 9 -3 34 -8 55 -12 20 -3 37 -9 37 -12 0 -4 -12 -16 -27 -28 -25 -20 -27
-25 -15 -44 7 -12 12 -23 10 -25 -2 -1 -13 -8 -25 -14 -33 -17 -30 -55 7 -81
34 -24 39 -50 10 -50 -11 0 -31 17 -49 43 -16 24 -41 51 -55 60 -22 15 -26 15
-40 1 -9 -8 -16 -22 -16 -30 0 -18 -42 -18 -78 0 -35 17 -95 28 -116 20 -20
-8 -20 -23 -1 -60 8 -16 15 -39 15 -50 0 -12 13 -38 30 -59 41 -52 30 -70 -57
-85 -38 -7 -88 -10 -113 -8 l-45 3 3 67 c3 55 1 68 -14 76 -19 11 -64 1 -129
-28 -76 -34 -110 -42 -195 -45 -150 -6 -392 57 -616 161 -102 47 -129 80 -83
104 16 9 42 6 122 -16 154 -41 151 -41 176 -5 27 37 35 38 111 6 65 -27 106
-31 145 -13 21 9 33 8 73 -9 125 -55 142 -55 208 -10 48 33 65 55 84 109 9 27
11 28 67 22 43 -5 61 -3 70 7 14 19 25 74 24 127 0 56 15 61 75 26 34 -20 61
-28 95 -28 57 0 79 16 79 59 0 17 3 35 7 38 15 16 51 5 70 -22z m25913 -693
c0 -5 -5 -8 -11 -8 -7 0 -10 -12 -7 -30 4 -29 4 -30 -38 -30 -46 0 -63 -14
-79 -64 -9 -29 -40 -44 -40 -19 0 19 -16 28 -24 14 -6 -9 -16 -11 -32 -5 -13
4 -27 7 -31 6 -5 -1 -8 2 -8 7 0 9 38 35 129 90 21 13 37 29 35 35 -3 7 15 11
51 11 30 0 55 -3 55 -7z m-22582 -780 c4 -21 -88 -82 -173 -115 -33 -13 -72
-30 -86 -38 -29 -16 -49 -5 -49 26 0 31 40 49 107 49 49 0 65 4 75 18 7 11 24
25 38 32 14 7 31 22 38 32 16 22 45 20 50 -4z m-1651 -1378 c40 0 56 -5 77
-25 15 -14 38 -25 51 -25 20 0 55 -22 55 -36 0 -2 -23 -15 -51 -29 -46 -24
-55 -25 -97 -15 -26 6 -54 11 -62 12 -8 0 -20 5 -27 10 -7 5 -20 7 -30 4 -10
-3 -25 -1 -33 4 -10 6 -20 4 -30 -4 -31 -28 -56 -28 -68 -1 -10 22 -9 27 6 32
9 3 26 14 37 24 11 10 36 19 55 21 31 3 35 7 38 33 3 27 5 28 16 12 10 -12 27
-17 63 -17z m9881 -2384 c5 -3 -11 -45 -35 -93 -46 -93 -68 -112 -128 -112
-59 -1 -102 17 -118 52 -9 17 -34 56 -56 86 -23 30 -41 58 -41 62 0 4 10 9 23
11 36 5 346 0 355 -6z"/>
<path d="M38370 14336 c0 -9 -5 -14 -10 -11 -6 3 -14 -4 -19 -17 -6 -13 -10
-17 -10 -10 -1 6 -5 12 -10 12 -13 0 -29 -74 -24 -107 7 -41 26 -82 35 -77 4
3 8 -12 8 -33 0 -24 -3 -33 -9 -25 -6 9 -10 3 -14 -20 -6 -39 2 -90 13 -83 11
7 33 -22 25 -35 -3 -5 2 -10 13 -10 24 0 29 44 28 257 -1 107 -5 156 -13 164
-11 11 -13 9 -13 -5z"/>
<path d="M23010 6525 c-26 -33 -43 -45 -65 -46 -47 -3 -79 2 -93 14 -10 8 -22
6 -47 -8 -19 -10 -32 -21 -30 -26 3 -4 1 -10 -4 -14 -13 -8 -92 6 -86 15 2 4
17 5 32 3 19 -3 24 -2 15 5 -8 5 -13 12 -13 16 2 12 -11 8 -34 -12 -18 -16
-34 -20 -66 -17 -23 3 -48 0 -55 -6 -9 -8 -11 -5 -7 10 3 12 1 21 -6 21 -6 0
-11 -7 -11 -16 0 -11 -5 -14 -16 -10 -9 3 -19 6 -22 6 -4 0 0 5 8 10 12 8 11
10 -7 10 -12 0 -23 5 -25 12 -3 7 -7 6 -11 -5 -3 -9 -2 -17 3 -17 6 0 10 -4
10 -10 0 -5 -9 -10 -20 -10 -11 0 -20 7 -20 15 0 8 -4 15 -10 15 -5 0 -10 -7
-10 -16 0 -10 -6 -14 -15 -11 -8 4 -17 2 -20 -3 -4 -6 -5 -10 -3 -11 19 -6
258 -12 258 -6 0 4 7 7 16 7 8 0 13 -4 10 -9 -9 -15 21 -21 100 -21 43 0 74 4
74 10 0 6 -15 10 -32 10 -30 1 -31 2 -13 12 11 6 23 15 26 20 9 13 62 6 67
-10 2 -6 -2 -10 -10 -9 -7 2 -10 2 -5 0 11 -7 8 -21 -5 -26 -7 -2 -2 -2 11 0
13 2 28 -3 35 -12 9 -12 19 -14 51 -7 35 7 37 9 18 16 -13 4 -23 12 -23 17 0
6 -8 6 -20 -1 -23 -12 -25 -3 -6 23 8 10 20 15 29 11 16 -6 57 31 57 53 0 7 4
13 9 13 5 0 11 9 14 20 3 11 4 20 4 20 -1 0 -18 -20 -37 -45z"/>
</g>
</svg>
